<svg width="375" height="650" viewBox="0 0 375 650" fill="none" xmlns="http://www.w3.org/2000/svg">
<rect x="2" y="2" width="371" height="646" rx="78" fill="white" stroke="black" stroke-width="4"/>
<path d="M51.3208 363.314C52.0375 361.897 52.8208 361.189 53.6708 361.189C54.1041 361.189 54.4541 361.372 54.7208 361.739C55.0208 362.155 55.3875 362.914 55.8208 364.014C56.8708 366.747 57.8958 371.005 58.8958 376.789C58.9291 376.972 58.8958 377.172 58.7958 377.389C58.6958 377.589 58.4291 377.689 57.9958 377.689C57.7291 377.689 57.4875 377.622 57.2708 377.489C57.0708 377.339 56.9375 377.105 56.8708 376.789L56.4958 374.864C56.0958 372.747 55.8291 371.647 55.6958 371.564C55.4958 371.447 54.8291 371.322 53.6958 371.189C52.4958 371.055 51.7541 370.989 51.4708 370.989C51.1041 370.989 50.8875 371.022 50.8208 371.089C50.5375 371.355 50.1291 373.38 49.5958 377.164C49.5291 377.48 49.2125 377.639 48.6458 377.639C48.0791 377.639 47.7958 377.397 47.7958 376.914C47.7958 375.73 48.2375 373.439 49.1208 370.039C49.9875 366.705 50.7208 364.464 51.3208 363.314ZM54.6708 366.389C54.2208 364.772 53.8541 363.964 53.5708 363.964C53.3375 363.964 52.9041 364.705 52.2708 366.189C51.6541 367.639 51.3458 368.547 51.3458 368.914C51.3458 368.997 51.3625 369.055 51.3958 369.089C51.5291 369.222 52.0541 369.339 52.9708 369.439C53.8041 369.539 54.4541 369.589 54.9208 369.589C55.1375 369.589 55.2625 369.572 55.2958 369.539C55.3291 369.472 55.3458 369.339 55.3458 369.139C55.3458 368.905 55.1208 367.989 54.6708 366.389ZM69.0528 367.964C68.8195 368.164 68.5778 368.264 68.3278 368.264L66.3028 368.014C63.6028 368.014 62.2528 369.364 62.2528 372.064C62.2528 373.43 62.6612 374.514 63.4778 375.314C63.8778 375.73 64.2945 375.939 64.7278 375.939C65.1445 375.939 65.9028 375.747 67.0028 375.364C68.1028 374.98 68.6862 374.789 68.7528 374.789C69.2028 374.789 69.4278 374.997 69.4278 375.414C69.4278 375.764 69.2362 376.064 68.8528 376.314C66.7528 377.197 65.2445 377.639 64.3278 377.639C63.7612 377.639 63.2028 377.455 62.6528 377.089C62.1028 376.722 61.6695 376.247 61.3528 375.664C60.7028 374.514 60.3778 373.28 60.3778 371.964C60.3778 370.18 60.9112 368.78 61.9778 367.764C63.0612 366.73 64.4278 366.214 66.0778 366.214C67.0612 366.214 68.0195 366.372 68.9528 366.689V366.714C69.2528 366.847 69.4028 367.047 69.4028 367.314C69.4028 367.53 69.2862 367.747 69.0528 367.964ZM80.3077 367.964C80.0744 368.164 79.8327 368.264 79.5827 368.264L77.5577 368.014C74.8577 368.014 73.5077 369.364 73.5077 372.064C73.5077 373.43 73.916 374.514 74.7327 375.314C75.1327 375.73 75.5494 375.939 75.9827 375.939C76.3994 375.939 77.1577 375.747 78.2577 375.364C79.3577 374.98 79.941 374.789 80.0077 374.789C80.4577 374.789 80.6827 374.997 80.6827 375.414C80.6827 375.764 80.491 376.064 80.1077 376.314C78.0077 377.197 76.4994 377.639 75.5827 377.639C75.016 377.639 74.4577 377.455 73.9077 377.089C73.3577 376.722 72.9244 376.247 72.6077 375.664C71.9577 374.514 71.6327 373.28 71.6327 371.964C71.6327 370.18 72.166 368.78 73.2327 367.764C74.316 366.73 75.6827 366.214 77.3327 366.214C78.316 366.214 79.2744 366.372 80.2077 366.689V366.714C80.5077 366.847 80.6577 367.047 80.6577 367.314C80.6577 367.53 80.541 367.747 80.3077 367.964ZM87.4376 372.064L84.9376 372.039L84.9876 375.314C84.9876 375.764 84.9793 375.997 84.9626 376.014L89.2876 375.939C89.7709 375.989 90.0126 376.197 90.0126 376.564C90.0126 377.264 89.6876 377.614 89.0376 377.614L84.1376 377.664C83.7209 377.664 83.4626 377.505 83.3626 377.189C83.2626 376.872 83.2126 376.447 83.2126 375.914V371.764C82.9959 371.647 82.8876 371.464 82.8876 371.214C82.8876 370.997 82.9793 370.797 83.1626 370.614C83.1126 369.314 83.0876 368.13 83.0876 367.064C83.0876 366.447 83.4626 366.13 84.2126 366.114H84.9126L89.2876 366.189H89.3126C89.8459 366.272 90.1126 366.522 90.1126 366.939C90.1126 367.255 90.0126 367.48 89.8126 367.614C89.3793 367.847 88.3376 367.964 86.6876 367.964C86.0876 367.964 85.4709 367.939 84.8376 367.889C84.8376 369.455 84.8459 370.297 84.8626 370.414C85.2959 370.43 86.5709 370.439 88.6876 370.439C89.2043 370.505 89.4626 370.739 89.4626 371.139C89.4626 371.339 89.3793 371.53 89.2126 371.714C89.0459 371.897 88.8626 372.005 88.6626 372.039C88.5793 372.039 88.4459 372.047 88.2626 372.064C88.0793 372.064 87.8043 372.064 87.4376 372.064ZM99.1597 366.539C99.7763 366.822 100.085 367.205 100.085 367.689C100.085 367.905 100.01 368.089 99.8597 368.239C99.7263 368.372 99.5847 368.439 99.4347 368.439C99.168 368.439 98.743 368.305 98.1597 368.039C97.6097 367.772 97.0763 367.639 96.5597 367.639C96.0763 367.639 95.5763 367.772 95.0597 368.039C94.543 368.289 94.2847 368.605 94.2847 368.989C94.2847 369.372 94.6013 369.714 95.2347 370.014C95.818 370.297 96.568 370.555 97.4847 370.789C98.3847 371.022 98.9597 371.239 99.2097 371.439C99.4597 371.605 99.668 371.772 99.8347 371.939C99.9847 372.072 100.118 372.33 100.235 372.714C100.368 373.08 100.435 373.522 100.435 374.039C100.435 375.255 100.035 376.164 99.2347 376.764C98.4513 377.347 97.5097 377.639 96.4097 377.639C95.3263 377.639 94.393 377.464 93.6097 377.114C92.8263 376.764 92.4347 376.33 92.4347 375.814C92.4347 375.58 92.518 375.372 92.6847 375.189C92.8513 374.989 93.043 374.889 93.2597 374.889C93.3097 374.889 93.3847 374.905 93.4847 374.939C95.0347 375.555 96.018 375.864 96.4347 375.864C97.1347 375.864 97.6763 375.689 98.0597 375.339C98.4597 374.989 98.6597 374.53 98.6597 373.964C98.6597 373.514 98.518 373.155 98.2347 372.889C97.9513 372.622 97.6013 372.422 97.1847 372.289C96.7847 372.139 96.2347 371.989 95.5347 371.839L94.6097 371.614C93.9763 371.43 93.4597 371.139 93.0597 370.739C92.6263 370.305 92.4097 369.705 92.4097 368.939C92.4097 368.155 92.8097 367.489 93.6097 366.939C94.393 366.372 95.368 366.089 96.5347 366.089C97.668 366.089 98.543 366.239 99.1597 366.539ZM109.169 366.539C109.786 366.822 110.094 367.205 110.094 367.689C110.094 367.905 110.019 368.089 109.869 368.239C109.736 368.372 109.594 368.439 109.444 368.439C109.178 368.439 108.753 368.305 108.169 368.039C107.619 367.772 107.086 367.639 106.569 367.639C106.086 367.639 105.586 367.772 105.069 368.039C104.553 368.289 104.294 368.605 104.294 368.989C104.294 369.372 104.611 369.714 105.244 370.014C105.828 370.297 106.578 370.555 107.494 370.789C108.394 371.022 108.969 371.239 109.219 371.439C109.469 371.605 109.678 371.772 109.844 371.939C109.994 372.072 110.128 372.33 110.244 372.714C110.378 373.08 110.444 373.522 110.444 374.039C110.444 375.255 110.044 376.164 109.244 376.764C108.461 377.347 107.519 377.639 106.419 377.639C105.336 377.639 104.403 377.464 103.619 377.114C102.836 376.764 102.444 376.33 102.444 375.814C102.444 375.58 102.528 375.372 102.694 375.189C102.861 374.989 103.053 374.889 103.269 374.889C103.319 374.889 103.394 374.905 103.494 374.939C105.044 375.555 106.028 375.864 106.444 375.864C107.144 375.864 107.686 375.689 108.069 375.339C108.469 374.989 108.669 374.53 108.669 373.964C108.669 373.514 108.528 373.155 108.244 372.889C107.961 372.622 107.611 372.422 107.194 372.289C106.794 372.139 106.244 371.989 105.544 371.839L104.619 371.614C103.986 371.43 103.469 371.139 103.069 370.739C102.636 370.305 102.419 369.705 102.419 368.939C102.419 368.155 102.819 367.489 103.619 366.939C104.403 366.372 105.378 366.089 106.544 366.089C107.678 366.089 108.553 366.239 109.169 366.539ZM124.591 366.164C124.724 366.08 124.833 366.039 124.916 366.039C125.349 366.089 125.566 366.289 125.566 366.639C125.566 367.055 125.341 367.63 124.891 368.364L124.241 369.364L123.641 370.264L123.291 370.789C123.008 371.155 122.749 371.539 122.516 371.939V374.114C122.516 375.614 122.466 376.58 122.366 377.014C122.266 377.447 121.958 377.664 121.441 377.664C121.291 377.664 121.183 377.63 121.116 377.564C120.933 377.38 120.841 376.83 120.841 375.914L120.866 373.214C120.866 372.78 120.841 372.339 120.791 371.889C120.074 370.955 119.141 369.439 117.991 367.339C117.941 367.255 117.916 367.164 117.916 367.064C117.916 366.947 117.966 366.814 118.066 366.664C118.299 366.314 118.583 366.139 118.916 366.139C119.149 366.139 119.758 366.98 120.741 368.664C121.141 369.364 121.466 369.897 121.716 370.264L122.666 368.814L123.441 367.564C123.958 366.764 124.341 366.297 124.591 366.164ZM128.888 367.564C129.788 366.68 131.03 366.239 132.613 366.239C133.863 366.239 134.863 366.722 135.613 367.689C136.363 368.639 136.738 369.93 136.738 371.564C136.738 373.197 136.321 374.622 135.488 375.839C134.671 377.039 133.613 377.639 132.313 377.639C130.913 377.639 129.771 377.039 128.888 375.839C128.005 374.622 127.563 373.155 127.563 371.439C127.563 369.739 128.005 368.447 128.888 367.564ZM130.138 374.414C130.721 375.347 131.505 375.814 132.488 375.814C133.055 375.814 133.538 375.572 133.938 375.089C134.605 374.272 134.938 373.189 134.938 371.839C134.938 370.472 134.738 369.489 134.338 368.889C133.955 368.272 133.288 367.964 132.338 367.964C131.371 367.964 130.621 368.264 130.088 368.864C129.555 369.447 129.288 370.289 129.288 371.389C129.288 372.489 129.571 373.497 130.138 374.414ZM146.368 371.339C146.368 369.489 146.268 368.089 146.068 367.139L146.043 366.914C146.043 366.697 146.143 366.505 146.343 366.339C146.543 366.189 146.768 366.114 147.018 366.114C147.251 366.114 147.443 366.172 147.593 366.289C147.76 366.405 147.851 366.555 147.868 366.739C148.035 368.355 148.118 369.83 148.118 371.164C148.118 371.914 148.093 372.514 148.043 372.964C147.926 374.58 147.518 375.772 146.818 376.539C146.135 377.289 145.076 377.664 143.643 377.664C142.626 377.664 141.76 377.372 141.043 376.789C140.343 376.189 139.843 375.38 139.543 374.364C139.11 372.864 138.893 371.214 138.893 369.414C138.893 368.714 138.935 367.922 139.018 367.039C139.035 366.822 139.16 366.639 139.393 366.489C139.626 366.322 139.851 366.239 140.068 366.239C140.285 366.239 140.46 366.305 140.593 366.439C140.726 366.572 140.785 366.747 140.768 366.964C140.685 367.747 140.643 368.597 140.643 369.514C140.643 369.947 140.66 370.497 140.693 371.164C140.793 372.514 141.101 373.655 141.618 374.589C142.151 375.522 142.826 375.989 143.643 375.989C145.46 375.989 146.368 374.439 146.368 371.339ZM151.973 373.739C151.989 374.222 152.023 375.214 152.073 376.714V376.739C152.073 376.989 151.956 377.205 151.723 377.389C151.489 377.572 151.231 377.664 150.948 377.664C150.581 377.664 150.398 377.497 150.398 377.164C150.331 376.48 150.298 373.372 150.298 367.839C150.298 367.305 150.614 366.889 151.248 366.589C151.881 366.289 152.739 366.139 153.823 366.139C154.889 366.139 155.831 366.405 156.648 366.939C157.464 367.455 157.873 368.097 157.873 368.864C157.873 369.214 157.714 369.614 157.398 370.064C157.098 370.514 156.756 370.88 156.373 371.164C156.039 371.397 155.531 371.705 154.848 372.089C154.164 372.472 153.756 372.672 153.623 372.689C154.639 373.339 155.573 374.064 156.423 374.864C157.239 375.664 157.648 376.322 157.648 376.839C157.648 377.205 157.448 377.455 157.048 377.589C156.898 377.639 156.789 377.664 156.723 377.664C156.473 377.664 156.198 377.48 155.898 377.114C155.681 376.83 155.148 376.314 154.298 375.564C153.431 374.814 152.656 374.205 151.973 373.739ZM151.998 368.064C151.981 368.597 151.973 369.747 151.973 371.514C152.506 371.514 153.331 371.247 154.448 370.714C155.548 370.164 156.123 369.655 156.173 369.189C156.173 368.772 155.931 368.447 155.448 368.214C154.981 367.964 154.448 367.839 153.848 367.839C153.214 367.839 152.598 367.914 151.998 368.064ZM166.594 375.414C166.561 374.947 166.236 372.255 165.619 367.339C165.619 367.039 165.719 366.78 165.919 366.564C166.119 366.33 166.369 366.214 166.669 366.214C167.019 366.214 167.244 366.439 167.344 366.889L167.794 370.464C168.044 372.547 168.228 373.964 168.344 374.714C168.728 373.997 169.011 373.422 169.194 372.989L169.844 371.614C170.278 370.814 170.719 370.414 171.169 370.414C171.519 370.414 171.869 370.839 172.219 371.689C172.269 371.772 172.319 371.88 172.369 372.014C172.419 372.13 172.486 372.255 172.569 372.389C173.269 373.872 173.661 374.68 173.744 374.814C174.378 371.914 174.836 369.239 175.119 366.789C175.136 366.589 175.253 366.405 175.469 366.239C175.703 366.055 175.919 365.964 176.119 365.964C176.319 365.964 176.486 366.022 176.619 366.139C176.753 366.239 176.819 366.38 176.819 366.564C176.819 367.43 176.203 370.897 174.969 376.964C174.869 377.397 174.519 377.614 173.919 377.614C173.653 377.614 173.428 377.472 173.244 377.189C173.011 376.805 172.603 376.039 172.019 374.889C171.636 374.089 171.303 373.422 171.019 372.889C170.269 374.672 169.661 375.914 169.194 376.614C168.744 377.314 168.278 377.664 167.794 377.664C167.494 377.664 167.228 377.397 166.994 376.864C166.778 376.364 166.644 375.88 166.594 375.414ZM181.069 373.189C180.586 374.955 180.303 376.222 180.219 376.989C180.153 377.405 179.853 377.614 179.319 377.614C178.803 377.614 178.544 377.397 178.544 376.964C178.544 375.964 179.028 373.964 179.994 370.964C180.394 369.647 180.878 368.497 181.444 367.514C181.961 366.597 182.478 366.139 182.994 366.139C183.261 366.139 183.494 366.297 183.694 366.614C183.861 366.88 184.219 367.605 184.769 368.789C185.319 369.989 185.761 371.18 186.094 372.364C186.411 373.48 186.794 375.014 187.244 376.964C187.244 377.164 187.169 377.33 187.019 377.464C186.869 377.597 186.686 377.664 186.469 377.664C185.919 377.664 185.586 377.43 185.469 376.964L184.594 373.539C183.144 373.539 181.969 373.422 181.069 373.189ZM184.169 371.864C183.819 370.597 183.403 369.455 182.919 368.439C182.369 369.355 181.919 370.397 181.569 371.564C182.303 371.764 183.169 371.864 184.169 371.864ZM193.855 377.589C193.105 377.672 192.372 377.714 191.655 377.714L189.58 377.664C189.163 377.664 188.93 377.539 188.88 377.289C188.78 376.589 188.73 375.497 188.73 374.014L188.905 366.764C188.905 366.347 189.222 366.139 189.855 366.139C190.172 366.139 190.43 366.214 190.63 366.364C190.83 366.514 190.93 366.722 190.93 366.989C190.913 367.455 190.83 368.422 190.68 369.889C190.48 371.505 190.38 372.689 190.38 373.439C190.38 374.172 190.405 375.055 190.455 376.089L193.505 375.914C193.488 375.63 193.48 374.997 193.48 374.014L193.655 366.764C193.655 366.347 193.972 366.139 194.605 366.139C194.922 366.139 195.18 366.214 195.38 366.364C195.58 366.514 195.68 366.722 195.68 366.989C195.663 367.455 195.58 368.422 195.43 369.889C195.23 371.505 195.13 372.689 195.13 373.439C195.13 374.172 195.155 375.055 195.205 376.089L198.905 375.864C199.455 375.864 199.73 376.147 199.73 376.714C199.73 377.164 199.555 377.43 199.205 377.514C198.505 377.63 197.663 377.689 196.68 377.689L194.33 377.664C194.147 377.664 193.988 377.639 193.855 377.589ZM204.772 372.064L202.272 372.039L202.322 375.314C202.322 375.764 202.313 375.997 202.297 376.014L206.622 375.939C207.105 375.989 207.347 376.197 207.347 376.564C207.347 377.264 207.022 377.614 206.372 377.614L201.472 377.664C201.055 377.664 200.797 377.505 200.697 377.189C200.597 376.872 200.547 376.447 200.547 375.914V371.764C200.33 371.647 200.222 371.464 200.222 371.214C200.222 370.997 200.313 370.797 200.497 370.614C200.447 369.314 200.422 368.13 200.422 367.064C200.422 366.447 200.797 366.13 201.547 366.114H202.247L206.622 366.189H206.647C207.18 366.272 207.447 366.522 207.447 366.939C207.447 367.255 207.347 367.48 207.147 367.614C206.713 367.847 205.672 367.964 204.022 367.964C203.422 367.964 202.805 367.939 202.172 367.889C202.172 369.455 202.18 370.297 202.197 370.414C202.63 370.43 203.905 370.439 206.022 370.439C206.538 370.505 206.797 370.739 206.797 371.139C206.797 371.339 206.713 371.53 206.547 371.714C206.38 371.897 206.197 372.005 205.997 372.039C205.913 372.039 205.78 372.047 205.597 372.064C205.413 372.064 205.138 372.064 204.772 372.064ZM218.744 366.664C218.744 367.347 217.96 367.689 216.394 367.689L214.744 367.639L214.694 373.564L214.719 375.439C214.735 375.772 214.744 376.239 214.744 376.839C214.744 377.072 214.635 377.272 214.419 377.439C214.219 377.589 213.994 377.664 213.744 377.664C213.31 377.664 213.094 377.43 213.094 376.964C213.044 375.314 213.019 373.722 213.019 372.189C213.019 370.355 213.069 368.864 213.169 367.714C212.052 367.797 211.035 367.839 210.119 367.839C209.602 367.839 209.344 367.622 209.344 367.189C209.344 366.989 209.435 366.789 209.619 366.589C209.819 366.389 210.035 366.28 210.269 366.264L218.069 366.014C218.519 366.114 218.744 366.33 218.744 366.664ZM232.923 369.039C232.923 369.939 232.664 370.647 232.148 371.164C232.731 371.297 233.214 371.664 233.598 372.264C233.981 372.847 234.173 373.464 234.173 374.114C234.173 375.18 233.798 376.08 233.048 376.814C232.531 377.38 230.298 377.664 226.348 377.664L226.323 376.589C226.273 374.689 226.248 372.555 226.248 370.189C226.248 368.689 226.431 367.63 226.798 367.014C227.164 366.397 227.914 366.089 229.048 366.089C230.181 366.089 231.106 366.364 231.823 366.914C232.556 367.447 232.923 368.155 232.923 369.039ZM228.273 367.964C228.089 368.147 227.998 368.464 227.998 368.914V371.039C228.898 371.039 229.689 370.889 230.373 370.589C231.056 370.255 231.398 369.739 231.398 369.039C231.398 368.639 231.198 368.314 230.798 368.064C230.414 367.797 229.939 367.664 229.373 367.664C228.839 367.664 228.473 367.764 228.273 367.964ZM232.623 374.114C232.623 372.947 231.931 372.364 230.548 372.364C229.848 372.364 228.989 372.43 227.973 372.564L227.948 373.739C227.948 374.522 227.989 375.322 228.073 376.139C228.106 376.139 228.298 376.147 228.648 376.164C228.998 376.164 229.564 376.105 230.348 375.989C231.864 375.739 232.623 375.114 232.623 374.114ZM242.657 366.164C242.791 366.08 242.899 366.039 242.982 366.039C243.416 366.089 243.632 366.289 243.632 366.639C243.632 367.055 243.407 367.63 242.957 368.364L242.307 369.364L241.707 370.264L241.357 370.789C241.074 371.155 240.816 371.539 240.582 371.939V374.114C240.582 375.614 240.532 376.58 240.432 377.014C240.332 377.447 240.024 377.664 239.507 377.664C239.357 377.664 239.249 377.63 239.182 377.564C238.999 377.38 238.907 376.83 238.907 375.914L238.932 373.214C238.932 372.78 238.907 372.339 238.857 371.889C238.141 370.955 237.207 369.439 236.057 367.339C236.007 367.255 235.982 367.164 235.982 367.064C235.982 366.947 236.032 366.814 236.132 366.664C236.366 366.314 236.649 366.139 236.982 366.139C237.216 366.139 237.824 366.98 238.807 368.664C239.207 369.364 239.532 369.897 239.782 370.264L240.732 368.814L241.507 367.564C242.024 366.764 242.407 366.297 242.657 366.164ZM260.166 367.964C259.933 368.164 259.691 368.264 259.441 368.264L257.416 368.014C254.716 368.014 253.366 369.364 253.366 372.064C253.366 373.43 253.774 374.514 254.591 375.314C254.991 375.73 255.408 375.939 255.841 375.939C256.258 375.939 257.016 375.747 258.116 375.364C259.216 374.98 259.799 374.789 259.866 374.789C260.316 374.789 260.541 374.997 260.541 375.414C260.541 375.764 260.349 376.064 259.966 376.314C257.866 377.197 256.358 377.639 255.441 377.639C254.874 377.639 254.316 377.455 253.766 377.089C253.216 376.722 252.783 376.247 252.466 375.664C251.816 374.514 251.491 373.28 251.491 371.964C251.491 370.18 252.024 368.78 253.091 367.764C254.174 366.73 255.541 366.214 257.191 366.214C258.174 366.214 259.133 366.372 260.066 366.689V366.714C260.366 366.847 260.516 367.047 260.516 367.314C260.516 367.53 260.399 367.747 260.166 367.964ZM268.221 377.514C267.521 377.63 266.688 377.689 265.721 377.689L263.346 377.664C262.929 377.664 262.696 377.539 262.646 377.289C262.546 376.589 262.496 375.497 262.496 374.014L262.671 366.764C262.671 366.347 262.988 366.139 263.621 366.139C263.938 366.139 264.196 366.214 264.396 366.364C264.596 366.514 264.696 366.722 264.696 366.989C264.679 367.605 264.588 368.572 264.421 369.889C264.238 371.589 264.146 372.772 264.146 373.439C264.146 374.172 264.171 375.055 264.221 376.089L267.921 375.864C268.471 375.864 268.746 376.147 268.746 376.714C268.746 377.164 268.571 377.43 268.221 377.514ZM271.516 377.414C271.283 377.58 271.041 377.664 270.791 377.664C270.324 377.664 270.091 377.464 270.091 377.064L270.191 366.889C270.191 366.655 270.266 366.472 270.416 366.339C270.583 366.189 270.791 366.114 271.041 366.114C271.291 366.114 271.499 366.172 271.666 366.289C271.849 366.422 271.949 366.622 271.966 366.889C271.983 367.072 271.991 367.68 271.991 368.714C271.991 373.264 271.958 375.972 271.891 376.839C271.874 377.039 271.749 377.23 271.516 377.414ZM282.676 367.964C282.443 368.164 282.201 368.264 281.951 368.264L279.926 368.014C277.226 368.014 275.876 369.364 275.876 372.064C275.876 373.43 276.284 374.514 277.101 375.314C277.501 375.73 277.918 375.939 278.351 375.939C278.768 375.939 279.526 375.747 280.626 375.364C281.726 374.98 282.309 374.789 282.376 374.789C282.826 374.789 283.051 374.997 283.051 375.414C283.051 375.764 282.859 376.064 282.476 376.314C280.376 377.197 278.868 377.639 277.951 377.639C277.384 377.639 276.826 377.455 276.276 377.089C275.726 376.722 275.293 376.247 274.976 375.664C274.326 374.514 274.001 373.28 274.001 371.964C274.001 370.18 274.534 368.78 275.601 367.764C276.684 366.73 278.051 366.214 279.701 366.214C280.684 366.214 281.643 366.372 282.576 366.689V366.714C282.876 366.847 283.026 367.047 283.026 367.314C283.026 367.53 282.909 367.747 282.676 367.964ZM286.606 377.664C286.106 377.664 285.864 377.405 285.881 376.889V375.564C285.881 374.647 285.831 373.255 285.731 371.389C285.631 369.422 285.547 368.239 285.481 367.839C285.414 367.422 285.381 367.097 285.381 366.864C285.381 366.714 285.489 366.555 285.706 366.389C285.922 366.205 286.147 366.114 286.381 366.114C286.664 366.114 286.889 366.264 287.056 366.564C287.406 367.33 287.581 368.93 287.581 371.364C288.714 370.43 289.547 369.672 290.081 369.089C290.731 368.389 291.372 367.564 292.006 366.614C292.239 366.264 292.514 366.089 292.831 366.089C293.464 366.089 293.781 366.297 293.781 366.714C293.781 367.514 292.706 369.014 290.556 371.214C291.456 372.014 292.314 373.064 293.131 374.364C293.947 375.597 294.356 376.38 294.356 376.714C294.356 376.997 294.272 377.222 294.106 377.389C293.939 377.555 293.731 377.639 293.481 377.639C293.264 377.639 293.014 377.472 292.731 377.139C292.464 376.789 292.072 376.205 291.556 375.389C291.139 374.689 290.764 374.139 290.431 373.739C290.081 373.272 289.639 372.822 289.106 372.389C288.622 372.822 288.131 373.214 287.631 373.564L287.706 376.839C287.706 377.389 287.339 377.664 286.606 377.664ZM297.786 377.414C297.552 377.58 297.311 377.664 297.061 377.664C296.594 377.664 296.361 377.464 296.361 377.064L296.461 366.889C296.461 366.655 296.536 366.472 296.686 366.339C296.852 366.189 297.061 366.114 297.311 366.114C297.561 366.114 297.769 366.172 297.936 366.289C298.119 366.422 298.219 366.622 298.236 366.889C298.252 367.072 298.261 367.68 298.261 368.714C298.261 373.264 298.227 375.972 298.161 376.839C298.144 377.039 298.019 377.23 297.786 377.414ZM306.145 375.814C304.879 373.414 303.554 371.43 302.17 369.864L301.895 375.939L301.87 376.489C301.87 376.772 301.862 376.947 301.845 377.014C301.779 377.464 301.487 377.689 300.97 377.689C300.77 377.689 300.587 377.622 300.42 377.489C300.27 377.339 300.187 377.155 300.17 376.939L300.37 369.939V369.114C300.37 368.497 300.412 368.014 300.495 367.664C300.629 367.214 300.929 366.989 301.395 366.989C301.645 366.989 301.945 367.155 302.295 367.489C302.645 367.805 303.145 368.38 303.795 369.214C305.362 371.147 306.562 372.989 307.395 374.739C307.379 372.689 307.32 370.889 307.22 369.339L307.095 367.289V367.089C307.229 366.455 307.57 366.139 308.12 366.139C308.337 366.139 308.537 366.239 308.72 366.439C308.904 366.622 308.995 366.855 308.995 367.139L309.12 376.439C309.12 377.305 308.77 377.739 308.07 377.739C307.654 377.739 307.329 377.597 307.095 377.314C306.812 376.964 306.595 376.647 306.445 376.364C306.295 376.08 306.195 375.897 306.145 375.814ZM312.831 367.839C313.914 366.705 315.256 366.139 316.856 366.139C317.556 366.139 318.206 366.289 318.806 366.589C319.406 366.889 319.706 367.255 319.706 367.689C319.706 367.922 319.614 368.122 319.431 368.289C319.248 368.455 319.031 368.539 318.781 368.539C318.664 368.539 318.439 368.472 318.106 368.339C317.573 368.089 317.098 367.964 316.681 367.964C315.631 367.964 314.764 368.405 314.081 369.289C313.414 370.155 313.081 371.13 313.081 372.214C313.081 373.28 313.314 374.172 313.781 374.889C314.264 375.622 314.806 375.989 315.406 375.989C316.023 375.989 316.523 375.83 316.906 375.514C317.306 375.18 317.506 374.764 317.506 374.264C317.506 373.397 317.348 372.964 317.031 372.964C316.314 372.964 315.823 372.914 315.556 372.814C315.306 372.714 315.181 372.514 315.181 372.214C315.181 371.614 315.448 371.289 315.981 371.239L316.681 371.214C317.214 371.214 317.656 371.28 318.006 371.414C318.523 371.614 318.848 371.93 318.981 372.364C319.231 373.38 319.356 374.347 319.356 375.264V375.839C319.356 376.389 319.323 376.822 319.256 377.139C319.223 377.355 319.148 377.505 319.031 377.589C318.931 377.672 318.748 377.714 318.481 377.714C318.231 377.714 318.039 377.664 317.906 377.564C317.773 377.447 317.681 377.247 317.631 376.964C316.831 377.48 316.048 377.739 315.281 377.739C314.498 377.739 313.781 377.464 313.131 376.914C312.514 376.364 312.039 375.68 311.706 374.864C311.389 374.03 311.231 373.18 311.231 372.314C311.231 370.447 311.764 368.955 312.831 367.839ZM68.8379 388.389C69.0212 387.905 69.2962 387.664 69.6629 387.664C70.1462 387.664 70.4379 387.93 70.5379 388.464C70.5379 389.68 70.7962 390.555 71.3129 391.089C71.3796 391.222 71.4129 391.389 71.4129 391.589C71.4129 391.772 71.3796 391.922 71.3129 392.039C71.1796 392.322 70.9379 392.464 70.5879 392.464C69.9212 392.464 69.4212 391.814 69.0879 390.514C68.9212 389.897 68.8379 389.189 68.8379 388.389ZM75.7986 392.364C77.232 390.997 78.9653 390.314 80.9986 390.314C82.082 390.314 83.3153 390.53 84.6986 390.964C84.982 391.18 85.1236 391.43 85.1236 391.714C85.1236 391.997 84.9986 392.247 84.7486 392.464C84.4986 392.664 84.182 392.764 83.7986 392.764C82.8653 392.53 82.0236 392.414 81.2736 392.414C79.457 392.414 78.0903 392.947 77.1736 394.014C76.2403 395.097 75.7736 396.68 75.7736 398.764C75.7736 400.88 76.3236 402.522 77.4236 403.689C77.9903 404.305 78.6653 404.614 79.4486 404.614C80.1986 404.614 81.4486 404.197 83.1986 403.364C83.8153 403.08 84.2153 402.939 84.3986 402.939C84.832 402.939 85.0486 403.164 85.0486 403.614C85.0486 404.064 84.8403 404.439 84.4236 404.739C83.057 405.455 81.9403 405.964 81.0736 406.264C80.2736 406.514 79.582 406.639 78.9986 406.639C77.7986 406.639 76.7736 406.197 75.9236 405.314C74.407 403.697 73.6486 401.472 73.6486 398.639C73.6486 395.805 74.3653 393.714 75.7986 392.364ZM88.4949 396.564C89.3949 395.68 90.6366 395.239 92.2199 395.239C93.4699 395.239 94.4699 395.722 95.2199 396.689C95.9699 397.639 96.3449 398.93 96.3449 400.564C96.3449 402.197 95.9283 403.622 95.0949 404.839C94.2783 406.039 93.2199 406.639 91.9199 406.639C90.5199 406.639 89.3783 406.039 88.4949 404.839C87.6116 403.622 87.1699 402.155 87.1699 400.439C87.1699 398.739 87.6116 397.447 88.4949 396.564ZM89.7449 403.414C90.3283 404.347 91.1116 404.814 92.0949 404.814C92.6616 404.814 93.1449 404.572 93.5449 404.089C94.2116 403.272 94.5449 402.189 94.5449 400.839C94.5449 399.472 94.3449 398.489 93.9449 397.889C93.5616 397.272 92.8949 396.964 91.9449 396.964C90.9783 396.964 90.2283 397.264 89.6949 397.864C89.1616 398.447 88.8949 399.289 88.8949 400.389C88.8949 401.489 89.1783 402.497 89.7449 403.414ZM104.4 404.814C103.133 402.414 101.808 400.43 100.425 398.864L100.15 404.939L100.125 405.489C100.125 405.772 100.116 405.947 100.1 406.014C100.033 406.464 99.7415 406.689 99.2248 406.689C99.0248 406.689 98.8415 406.622 98.6748 406.489C98.5248 406.339 98.4415 406.155 98.4248 405.939L98.6248 398.939V398.114C98.6248 397.497 98.6665 397.014 98.7498 396.664C98.8831 396.214 99.1831 395.989 99.6498 395.989C99.8998 395.989 100.2 396.155 100.55 396.489C100.9 396.805 101.4 397.38 102.05 398.214C103.616 400.147 104.816 401.989 105.65 403.739C105.633 401.689 105.575 399.889 105.475 398.339L105.35 396.289V396.089C105.483 395.455 105.825 395.139 106.375 395.139C106.591 395.139 106.791 395.239 106.975 395.439C107.158 395.622 107.25 395.855 107.25 396.139L107.375 405.439C107.375 406.305 107.025 406.739 106.325 406.739C105.908 406.739 105.583 406.597 105.35 406.314C105.066 405.964 104.85 405.647 104.7 405.364C104.55 405.08 104.45 404.897 104.4 404.814ZM115.411 404.814C114.144 402.414 112.819 400.43 111.436 398.864L111.161 404.939L111.136 405.489C111.136 405.772 111.127 405.947 111.111 406.014C111.044 406.464 110.752 406.689 110.236 406.689C110.036 406.689 109.852 406.622 109.686 406.489C109.536 406.339 109.452 406.155 109.436 405.939L109.636 398.939V398.114C109.636 397.497 109.677 397.014 109.761 396.664C109.894 396.214 110.194 395.989 110.661 395.989C110.911 395.989 111.211 396.155 111.561 396.489C111.911 396.805 112.411 397.38 113.061 398.214C114.627 400.147 115.827 401.989 116.661 403.739C116.644 401.689 116.586 399.889 116.486 398.339L116.361 396.289V396.089C116.494 395.455 116.836 395.139 117.386 395.139C117.602 395.139 117.802 395.239 117.986 395.439C118.169 395.622 118.261 395.855 118.261 396.139L118.386 405.439C118.386 406.305 118.036 406.739 117.336 406.739C116.919 406.739 116.594 406.597 116.361 406.314C116.077 405.964 115.861 405.647 115.711 405.364C115.561 405.08 115.461 404.897 115.411 404.814ZM125.096 401.064L122.596 401.039L122.646 404.314C122.646 404.764 122.638 404.997 122.621 405.014L126.946 404.939C127.43 404.989 127.671 405.197 127.671 405.564C127.671 406.264 127.346 406.614 126.696 406.614L121.796 406.664C121.38 406.664 121.121 406.505 121.021 406.189C120.921 405.872 120.871 405.447 120.871 404.914V400.764C120.655 400.647 120.546 400.464 120.546 400.214C120.546 399.997 120.638 399.797 120.821 399.614C120.771 398.314 120.746 397.13 120.746 396.064C120.746 395.447 121.121 395.13 121.871 395.114H122.571L126.946 395.189H126.971C127.505 395.272 127.771 395.522 127.771 395.939C127.771 396.255 127.671 396.48 127.471 396.614C127.038 396.847 125.996 396.964 124.346 396.964C123.746 396.964 123.13 396.939 122.496 396.889C122.496 398.455 122.505 399.297 122.521 399.414C122.955 399.43 124.23 399.439 126.346 399.439C126.863 399.505 127.121 399.739 127.121 400.139C127.121 400.339 127.038 400.53 126.871 400.714C126.705 400.897 126.521 401.005 126.321 401.039C126.238 401.039 126.105 401.047 125.921 401.064C125.738 401.064 125.463 401.064 125.096 401.064ZM138.718 396.964C138.485 397.164 138.243 397.264 137.993 397.264L135.968 397.014C133.268 397.014 131.918 398.364 131.918 401.064C131.918 402.43 132.327 403.514 133.143 404.314C133.543 404.73 133.96 404.939 134.393 404.939C134.81 404.939 135.568 404.747 136.668 404.364C137.768 403.98 138.352 403.789 138.418 403.789C138.868 403.789 139.093 403.997 139.093 404.414C139.093 404.764 138.902 405.064 138.518 405.314C136.418 406.197 134.91 406.639 133.993 406.639C133.427 406.639 132.868 406.455 132.318 406.089C131.768 405.722 131.335 405.247 131.018 404.664C130.368 403.514 130.043 402.28 130.043 400.964C130.043 399.18 130.577 397.78 131.643 396.764C132.727 395.73 134.093 395.214 135.743 395.214C136.727 395.214 137.685 395.372 138.618 395.689V395.714C138.918 395.847 139.068 396.047 139.068 396.314C139.068 396.53 138.952 396.747 138.718 396.964ZM150.323 395.664C150.323 396.347 149.54 396.689 147.973 396.689L146.323 396.639L146.273 402.564L146.298 404.439C146.315 404.772 146.323 405.239 146.323 405.839C146.323 406.072 146.215 406.272 145.998 406.439C145.798 406.589 145.573 406.664 145.323 406.664C144.89 406.664 144.673 406.43 144.673 405.964C144.623 404.314 144.598 402.722 144.598 401.189C144.598 399.355 144.648 397.864 144.748 396.714C143.632 396.797 142.615 396.839 141.698 396.839C141.182 396.839 140.923 396.622 140.923 396.189C140.923 395.989 141.015 395.789 141.198 395.589C141.398 395.389 141.615 395.28 141.848 395.264L149.648 395.014C150.098 395.114 150.323 395.33 150.323 395.664ZM166.827 395.664C166.827 396.347 166.044 396.689 164.477 396.689L162.827 396.639L162.777 402.564L162.802 404.439C162.819 404.772 162.827 405.239 162.827 405.839C162.827 406.072 162.719 406.272 162.502 406.439C162.302 406.589 162.077 406.664 161.827 406.664C161.394 406.664 161.177 406.43 161.177 405.964C161.127 404.314 161.102 402.722 161.102 401.189C161.102 399.355 161.152 397.864 161.252 396.714C160.135 396.797 159.119 396.839 158.202 396.839C157.685 396.839 157.427 396.622 157.427 396.189C157.427 395.989 157.519 395.789 157.702 395.589C157.902 395.389 158.119 395.28 158.352 395.264L166.152 395.014C166.602 395.114 166.827 395.33 166.827 395.664ZM169.769 396.564C170.669 395.68 171.911 395.239 173.494 395.239C174.744 395.239 175.744 395.722 176.494 396.689C177.244 397.639 177.619 398.93 177.619 400.564C177.619 402.197 177.203 403.622 176.369 404.839C175.553 406.039 174.494 406.639 173.194 406.639C171.794 406.639 170.653 406.039 169.769 404.839C168.886 403.622 168.444 402.155 168.444 400.439C168.444 398.739 168.886 397.447 169.769 396.564ZM171.019 403.414C171.603 404.347 172.386 404.814 173.369 404.814C173.936 404.814 174.419 404.572 174.819 404.089C175.486 403.272 175.819 402.189 175.819 400.839C175.819 399.472 175.619 398.489 175.219 397.889C174.836 397.272 174.169 396.964 173.219 396.964C172.253 396.964 171.503 397.264 170.969 397.864C170.436 398.447 170.169 399.289 170.169 400.389C170.169 401.489 170.453 402.497 171.019 403.414ZM188.186 402.189C187.703 403.955 187.419 405.222 187.336 405.989C187.269 406.405 186.969 406.614 186.436 406.614C185.919 406.614 185.661 406.397 185.661 405.964C185.661 404.964 186.144 402.964 187.111 399.964C187.511 398.647 187.994 397.497 188.561 396.514C189.078 395.597 189.594 395.139 190.111 395.139C190.378 395.139 190.611 395.297 190.811 395.614C190.978 395.88 191.336 396.605 191.886 397.789C192.436 398.989 192.878 400.18 193.211 401.364C193.528 402.48 193.911 404.014 194.361 405.964C194.361 406.164 194.286 406.33 194.136 406.464C193.986 406.597 193.803 406.664 193.586 406.664C193.036 406.664 192.703 406.43 192.586 405.964L191.711 402.539C190.261 402.539 189.086 402.422 188.186 402.189ZM191.286 400.864C190.936 399.597 190.519 398.455 190.036 397.439C189.486 398.355 189.036 399.397 188.686 400.564C189.419 400.764 190.286 400.864 191.286 400.864ZM202.983 404.414C202.95 403.947 202.625 401.255 202.008 396.339C202.008 396.039 202.108 395.78 202.308 395.564C202.508 395.33 202.758 395.214 203.058 395.214C203.408 395.214 203.633 395.439 203.733 395.889L204.183 399.464C204.433 401.547 204.617 402.964 204.733 403.714C205.117 402.997 205.4 402.422 205.583 401.989L206.233 400.614C206.667 399.814 207.108 399.414 207.558 399.414C207.908 399.414 208.258 399.839 208.608 400.689C208.658 400.772 208.708 400.88 208.758 401.014C208.808 401.13 208.875 401.255 208.958 401.389C209.658 402.872 210.05 403.68 210.133 403.814C210.767 400.914 211.225 398.239 211.508 395.789C211.525 395.589 211.642 395.405 211.858 395.239C212.092 395.055 212.308 394.964 212.508 394.964C212.708 394.964 212.875 395.022 213.008 395.139C213.142 395.239 213.208 395.38 213.208 395.564C213.208 396.43 212.592 399.897 211.358 405.964C211.258 406.397 210.908 406.614 210.308 406.614C210.042 406.614 209.817 406.472 209.633 406.189C209.4 405.805 208.992 405.039 208.408 403.889C208.025 403.089 207.692 402.422 207.408 401.889C206.658 403.672 206.05 404.914 205.583 405.614C205.133 406.314 204.667 406.664 204.183 406.664C203.883 406.664 203.617 406.397 203.383 405.864C203.167 405.364 203.033 404.88 202.983 404.414ZM217.458 402.189C216.975 403.955 216.692 405.222 216.608 405.989C216.542 406.405 216.242 406.614 215.708 406.614C215.192 406.614 214.933 406.397 214.933 405.964C214.933 404.964 215.417 402.964 216.383 399.964C216.783 398.647 217.267 397.497 217.833 396.514C218.35 395.597 218.867 395.139 219.383 395.139C219.65 395.139 219.883 395.297 220.083 395.614C220.25 395.88 220.608 396.605 221.158 397.789C221.708 398.989 222.15 400.18 222.483 401.364C222.8 402.48 223.183 404.014 223.633 405.964C223.633 406.164 223.558 406.33 223.408 406.464C223.258 406.597 223.075 406.664 222.858 406.664C222.308 406.664 221.975 406.43 221.858 405.964L220.983 402.539C219.533 402.539 218.358 402.422 217.458 402.189ZM220.558 400.864C220.208 399.597 219.792 398.455 219.308 397.439C218.758 398.355 218.308 399.397 217.958 400.564C218.692 400.764 219.558 400.864 220.558 400.864ZM230.244 406.589C229.494 406.672 228.761 406.714 228.044 406.714L225.969 406.664C225.552 406.664 225.319 406.539 225.269 406.289C225.169 405.589 225.119 404.497 225.119 403.014L225.294 395.764C225.294 395.347 225.611 395.139 226.244 395.139C226.561 395.139 226.819 395.214 227.019 395.364C227.219 395.514 227.319 395.722 227.319 395.989C227.302 396.455 227.219 397.422 227.069 398.889C226.869 400.505 226.769 401.689 226.769 402.439C226.769 403.172 226.794 404.055 226.844 405.089L229.894 404.914C229.877 404.63 229.869 403.997 229.869 403.014L230.044 395.764C230.044 395.347 230.361 395.139 230.994 395.139C231.311 395.139 231.569 395.214 231.769 395.364C231.969 395.514 232.069 395.722 232.069 395.989C232.052 396.455 231.969 397.422 231.819 398.889C231.619 400.505 231.519 401.689 231.519 402.439C231.519 403.172 231.544 404.055 231.594 405.089L235.294 404.864C235.844 404.864 236.119 405.147 236.119 405.714C236.119 406.164 235.944 406.43 235.594 406.514C234.894 406.63 234.052 406.689 233.069 406.689L230.719 406.664C230.536 406.664 230.377 406.639 230.244 406.589ZM241.161 401.064L238.661 401.039L238.711 404.314C238.711 404.764 238.702 404.997 238.686 405.014L243.011 404.939C243.494 404.989 243.736 405.197 243.736 405.564C243.736 406.264 243.411 406.614 242.761 406.614L237.861 406.664C237.444 406.664 237.186 406.505 237.086 406.189C236.986 405.872 236.936 405.447 236.936 404.914V400.764C236.719 400.647 236.611 400.464 236.611 400.214C236.611 399.997 236.702 399.797 236.886 399.614C236.836 398.314 236.811 397.13 236.811 396.064C236.811 395.447 237.186 395.13 237.936 395.114H238.636L243.011 395.189H243.036C243.569 395.272 243.836 395.522 243.836 395.939C243.836 396.255 243.736 396.48 243.536 396.614C243.102 396.847 242.061 396.964 240.411 396.964C239.811 396.964 239.194 396.939 238.561 396.889C238.561 398.455 238.569 399.297 238.586 399.414C239.019 399.43 240.294 399.439 242.411 399.439C242.927 399.505 243.186 399.739 243.186 400.139C243.186 400.339 243.102 400.53 242.936 400.714C242.769 400.897 242.586 401.005 242.386 401.039C242.302 401.039 242.169 401.047 241.986 401.064C241.802 401.064 241.527 401.064 241.161 401.064ZM255.133 395.664C255.133 396.347 254.349 396.689 252.783 396.689L251.133 396.639L251.083 402.564L251.108 404.439C251.124 404.772 251.133 405.239 251.133 405.839C251.133 406.072 251.024 406.272 250.808 406.439C250.608 406.589 250.383 406.664 250.133 406.664C249.699 406.664 249.483 406.43 249.483 405.964C249.433 404.314 249.408 402.722 249.408 401.189C249.408 399.355 249.458 397.864 249.558 396.714C248.441 396.797 247.424 396.839 246.508 396.839C245.991 396.839 245.733 396.622 245.733 396.189C245.733 395.989 245.824 395.789 246.008 395.589C246.208 395.389 246.424 395.28 246.658 395.264L254.458 395.014C254.908 395.114 255.133 395.33 255.133 395.664ZM259.35 387.889C259.533 388.039 259.625 388.255 259.625 388.539C259.625 389.439 259.458 390.322 259.125 391.189C258.808 392.039 258.367 392.464 257.8 392.464C257.25 392.464 256.975 392.18 256.975 391.614C256.975 391.397 257.117 390.98 257.4 390.364C257.7 389.764 257.85 389.13 257.85 388.464C257.85 388.214 257.933 388.022 258.1 387.889C258.283 387.739 258.5 387.664 258.75 387.664C258.983 387.664 259.183 387.739 259.35 387.889ZM270.73 402.189C270.247 403.955 269.963 405.222 269.88 405.989C269.813 406.405 269.513 406.614 268.98 406.614C268.463 406.614 268.205 406.397 268.205 405.964C268.205 404.964 268.688 402.964 269.655 399.964C270.055 398.647 270.538 397.497 271.105 396.514C271.622 395.597 272.138 395.139 272.655 395.139C272.922 395.139 273.155 395.297 273.355 395.614C273.522 395.88 273.88 396.605 274.43 397.789C274.98 398.989 275.422 400.18 275.755 401.364C276.072 402.48 276.455 404.014 276.905 405.964C276.905 406.164 276.83 406.33 276.68 406.464C276.53 406.597 276.347 406.664 276.13 406.664C275.58 406.664 275.247 406.43 275.13 405.964L274.255 402.539C272.805 402.539 271.63 402.422 270.73 402.189ZM273.83 400.864C273.48 399.597 273.063 398.455 272.58 397.439C272.03 398.355 271.58 399.397 271.23 400.564C271.963 400.764 272.83 400.864 273.83 400.864ZM284.991 404.814C283.724 402.414 282.399 400.43 281.016 398.864L280.741 404.939L280.716 405.489C280.716 405.772 280.707 405.947 280.691 406.014C280.624 406.464 280.332 406.689 279.816 406.689C279.616 406.689 279.432 406.622 279.266 406.489C279.116 406.339 279.032 406.155 279.016 405.939L279.216 398.939V398.114C279.216 397.497 279.257 397.014 279.341 396.664C279.474 396.214 279.774 395.989 280.241 395.989C280.491 395.989 280.791 396.155 281.141 396.489C281.491 396.805 281.991 397.38 282.641 398.214C284.207 400.147 285.407 401.989 286.241 403.739C286.224 401.689 286.166 399.889 286.066 398.339L285.941 396.289V396.089C286.074 395.455 286.416 395.139 286.966 395.139C287.182 395.139 287.382 395.239 287.566 395.439C287.749 395.622 287.841 395.855 287.841 396.139L287.966 405.439C287.966 406.305 287.616 406.739 286.916 406.739C286.499 406.739 286.174 406.597 285.941 406.314C285.657 405.964 285.441 405.647 285.291 405.364C285.141 405.08 285.041 404.897 284.991 404.814ZM291.776 407.564C291.343 407.564 291.085 407.347 291.001 406.914L290.776 406.014C290.56 405.847 290.451 405.664 290.451 405.464C290.451 405.33 290.51 405.18 290.626 405.014C290.476 403.93 290.36 402.447 290.276 400.564C290.21 399.08 290.176 398.13 290.176 397.714C290.176 397.064 290.218 396.53 290.301 396.114C290.435 395.48 290.818 395.164 291.451 395.164C293.185 395.164 294.835 395.939 296.401 397.489C298.001 399.039 298.801 400.722 298.801 402.539C298.801 403.872 298.376 404.897 297.526 405.614C296.693 406.314 295.535 406.664 294.051 406.664C293.718 406.664 293.318 406.63 292.851 406.564C292.851 406.83 292.743 407.064 292.526 407.264C292.31 407.464 292.06 407.564 291.776 407.564ZM295.676 399.564C294.793 398.464 293.585 397.614 292.051 397.014C292.035 397.13 292.026 397.447 292.026 397.964C292.026 398.247 292.068 399.247 292.151 400.964C292.251 402.514 292.376 403.822 292.526 404.889C292.693 404.922 293.21 404.939 294.076 404.939C296.026 404.939 297.001 404.389 297.001 403.289C297.001 401.905 296.56 400.664 295.676 399.564ZM97.6826 424.539C98.2993 424.822 98.6076 425.205 98.6076 425.689C98.6076 425.905 98.5326 426.089 98.3826 426.239C98.2493 426.372 98.1076 426.439 97.9576 426.439C97.691 426.439 97.266 426.305 96.6826 426.039C96.1326 425.772 95.5993 425.639 95.0826 425.639C94.5993 425.639 94.0993 425.772 93.5826 426.039C93.066 426.289 92.8076 426.605 92.8076 426.989C92.8076 427.372 93.1243 427.714 93.7576 428.014C94.341 428.297 95.091 428.555 96.0076 428.789C96.9076 429.022 97.4826 429.239 97.7326 429.439C97.9826 429.605 98.191 429.772 98.3576 429.939C98.5076 430.072 98.641 430.33 98.7576 430.714C98.891 431.08 98.9576 431.522 98.9576 432.039C98.9576 433.255 98.5576 434.164 97.7576 434.764C96.9743 435.347 96.0326 435.639 94.9326 435.639C93.8493 435.639 92.916 435.464 92.1326 435.114C91.3493 434.764 90.9576 434.33 90.9576 433.814C90.9576 433.58 91.041 433.372 91.2076 433.189C91.3743 432.989 91.566 432.889 91.7826 432.889C91.8326 432.889 91.9076 432.905 92.0076 432.939C93.5576 433.555 94.541 433.864 94.9576 433.864C95.6576 433.864 96.1993 433.689 96.5826 433.339C96.9826 432.989 97.1826 432.53 97.1826 431.964C97.1826 431.514 97.041 431.155 96.7576 430.889C96.4743 430.622 96.1243 430.422 95.7076 430.289C95.3076 430.139 94.7576 429.989 94.0576 429.839L93.1326 429.614C92.4993 429.43 91.9826 429.139 91.5826 428.739C91.1493 428.305 90.9326 427.705 90.9326 426.939C90.9326 426.155 91.3326 425.489 92.1326 424.939C92.916 424.372 93.891 424.089 95.0576 424.089C96.191 424.089 97.066 424.239 97.6826 424.539ZM105.467 430.064L102.967 430.039L103.017 433.314C103.017 433.764 103.009 433.997 102.992 434.014L107.317 433.939C107.801 433.989 108.042 434.197 108.042 434.564C108.042 435.264 107.717 435.614 107.067 435.614L102.167 435.664C101.751 435.664 101.492 435.505 101.392 435.189C101.292 434.872 101.242 434.447 101.242 433.914V429.764C101.026 429.647 100.917 429.464 100.917 429.214C100.917 428.997 101.009 428.797 101.192 428.614C101.142 427.314 101.117 426.13 101.117 425.064C101.117 424.447 101.492 424.13 102.242 424.114H102.942L107.317 424.189H107.342C107.876 424.272 108.142 424.522 108.142 424.939C108.142 425.255 108.042 425.48 107.842 425.614C107.409 425.847 106.367 425.964 104.717 425.964C104.117 425.964 103.501 425.939 102.867 425.889C102.867 427.455 102.876 428.297 102.892 428.414C103.326 428.43 104.601 428.439 106.717 428.439C107.234 428.505 107.492 428.739 107.492 429.139C107.492 429.339 107.409 429.53 107.242 429.714C107.076 429.897 106.892 430.005 106.692 430.039C106.609 430.039 106.476 430.047 106.292 430.064C106.109 430.064 105.834 430.064 105.467 430.064ZM115.889 435.514C115.189 435.63 114.356 435.689 113.389 435.689L111.014 435.664C110.598 435.664 110.364 435.539 110.314 435.289C110.214 434.589 110.164 433.497 110.164 432.014L110.339 424.764C110.339 424.347 110.656 424.139 111.289 424.139C111.606 424.139 111.864 424.214 112.064 424.364C112.264 424.514 112.364 424.722 112.364 424.989C112.348 425.605 112.256 426.572 112.089 427.889C111.906 429.589 111.814 430.772 111.814 431.439C111.814 432.172 111.839 433.055 111.889 434.089L115.589 433.864C116.139 433.864 116.414 434.147 116.414 434.714C116.414 435.164 116.239 435.43 115.889 435.514ZM122.46 430.064L119.96 430.039L120.01 433.314C120.01 433.764 120.001 433.997 119.985 434.014L124.31 433.939C124.793 433.989 125.035 434.197 125.035 434.564C125.035 435.264 124.71 435.614 124.06 435.614L119.16 435.664C118.743 435.664 118.485 435.505 118.385 435.189C118.285 434.872 118.235 434.447 118.235 433.914V429.764C118.018 429.647 117.91 429.464 117.91 429.214C117.91 428.997 118.001 428.797 118.185 428.614C118.135 427.314 118.11 426.13 118.11 425.064C118.11 424.447 118.485 424.13 119.235 424.114H119.935L124.31 424.189H124.335C124.868 424.272 125.135 424.522 125.135 424.939C125.135 425.255 125.035 425.48 124.835 425.614C124.401 425.847 123.36 425.964 121.71 425.964C121.11 425.964 120.493 425.939 119.86 425.889C119.86 427.455 119.868 428.297 119.885 428.414C120.318 428.43 121.593 428.439 123.71 428.439C124.226 428.505 124.485 428.739 124.485 429.139C124.485 429.339 124.401 429.53 124.235 429.714C124.068 429.897 123.885 430.005 123.685 430.039C123.601 430.039 123.468 430.047 123.285 430.064C123.101 430.064 122.826 430.064 122.46 430.064ZM136.082 425.964C135.848 426.164 135.607 426.264 135.357 426.264L133.332 426.014C130.632 426.014 129.282 427.364 129.282 430.064C129.282 431.43 129.69 432.514 130.507 433.314C130.907 433.73 131.323 433.939 131.757 433.939C132.173 433.939 132.932 433.747 134.032 433.364C135.132 432.98 135.715 432.789 135.782 432.789C136.232 432.789 136.457 432.997 136.457 433.414C136.457 433.764 136.265 434.064 135.882 434.314C133.782 435.197 132.273 435.639 131.357 435.639C130.79 435.639 130.232 435.455 129.682 435.089C129.132 434.722 128.698 434.247 128.382 433.664C127.732 432.514 127.407 431.28 127.407 429.964C127.407 428.18 127.94 426.78 129.007 425.764C130.09 424.73 131.457 424.214 133.107 424.214C134.09 424.214 135.048 424.372 135.982 424.689V424.714C136.282 424.847 136.432 425.047 136.432 425.314C136.432 425.53 136.315 425.747 136.082 425.964ZM147.687 424.664C147.687 425.347 146.903 425.689 145.337 425.689L143.687 425.639L143.637 431.564L143.662 433.439C143.678 433.772 143.687 434.239 143.687 434.839C143.687 435.072 143.578 435.272 143.362 435.439C143.162 435.589 142.937 435.664 142.687 435.664C142.253 435.664 142.037 435.43 142.037 434.964C141.987 433.314 141.962 431.722 141.962 430.189C141.962 428.355 142.012 426.864 142.112 425.714C140.995 425.797 139.978 425.839 139.062 425.839C138.545 425.839 138.287 425.622 138.287 425.189C138.287 424.989 138.378 424.789 138.562 424.589C138.762 424.389 138.978 424.28 139.212 424.264L147.012 424.014C147.462 424.114 147.687 424.33 147.687 424.664ZM150.679 435.414C150.445 435.58 150.204 435.664 149.954 435.664C149.487 435.664 149.254 435.464 149.254 435.064L149.354 424.889C149.354 424.655 149.429 424.472 149.579 424.339C149.745 424.189 149.954 424.114 150.204 424.114C150.454 424.114 150.662 424.172 150.829 424.289C151.012 424.422 151.112 424.622 151.129 424.889C151.145 425.072 151.154 425.68 151.154 426.714C151.154 431.264 151.12 433.972 151.054 434.839C151.037 435.039 150.912 435.23 150.679 435.414ZM159.038 433.814C157.772 431.414 156.447 429.43 155.063 427.864L154.788 433.939L154.763 434.489C154.763 434.772 154.755 434.947 154.738 435.014C154.672 435.464 154.38 435.689 153.863 435.689C153.663 435.689 153.48 435.622 153.313 435.489C153.163 435.339 153.08 435.155 153.063 434.939L153.263 427.939V427.114C153.263 426.497 153.305 426.014 153.388 425.664C153.522 425.214 153.822 424.989 154.288 424.989C154.538 424.989 154.838 425.155 155.188 425.489C155.538 425.805 156.038 426.38 156.688 427.214C158.255 429.147 159.455 430.989 160.288 432.739C160.272 430.689 160.213 428.889 160.113 427.339L159.988 425.289V425.089C160.122 424.455 160.463 424.139 161.013 424.139C161.23 424.139 161.43 424.239 161.613 424.439C161.797 424.622 161.888 424.855 161.888 425.139L162.013 434.439C162.013 435.305 161.663 435.739 160.963 435.739C160.547 435.739 160.222 435.597 159.988 435.314C159.705 434.964 159.488 434.647 159.338 434.364C159.188 434.08 159.088 433.897 159.038 433.814ZM165.724 425.839C166.808 424.705 168.149 424.139 169.749 424.139C170.449 424.139 171.099 424.289 171.699 424.589C172.299 424.889 172.599 425.255 172.599 425.689C172.599 425.922 172.508 426.122 172.324 426.289C172.141 426.455 171.924 426.539 171.674 426.539C171.558 426.539 171.333 426.472 170.999 426.339C170.466 426.089 169.991 425.964 169.574 425.964C168.524 425.964 167.658 426.405 166.974 427.289C166.308 428.155 165.974 429.13 165.974 430.214C165.974 431.28 166.208 432.172 166.674 432.889C167.158 433.622 167.699 433.989 168.299 433.989C168.916 433.989 169.416 433.83 169.799 433.514C170.199 433.18 170.399 432.764 170.399 432.264C170.399 431.397 170.241 430.964 169.924 430.964C169.208 430.964 168.716 430.914 168.449 430.814C168.199 430.714 168.074 430.514 168.074 430.214C168.074 429.614 168.341 429.289 168.874 429.239L169.574 429.214C170.108 429.214 170.549 429.28 170.899 429.414C171.416 429.614 171.741 429.93 171.874 430.364C172.124 431.38 172.249 432.347 172.249 433.264V433.839C172.249 434.389 172.216 434.822 172.149 435.139C172.116 435.355 172.041 435.505 171.924 435.589C171.824 435.672 171.641 435.714 171.374 435.714C171.124 435.714 170.933 435.664 170.799 435.564C170.666 435.447 170.574 435.247 170.524 434.964C169.724 435.48 168.941 435.739 168.174 435.739C167.391 435.739 166.674 435.464 166.024 434.914C165.408 434.364 164.933 433.68 164.599 432.864C164.283 432.03 164.124 431.18 164.124 430.314C164.124 428.447 164.658 426.955 165.724 425.839ZM191.059 420.114C191.309 419.38 191.717 419.014 192.284 419.014C192.667 419.014 192.926 419.305 193.059 419.889C193.142 422.922 193.184 425.889 193.184 428.789C193.184 431.822 193.167 433.672 193.134 434.339C193.101 434.855 192.992 435.214 192.809 435.414C192.626 435.597 192.292 435.689 191.809 435.689C191.376 435.689 191.159 435.422 191.159 434.889V429.239C191.159 428.655 191.142 427.714 191.109 426.414L191.059 424.589C190.476 425.572 189.726 426.372 188.809 426.989C187.892 427.605 186.851 427.914 185.684 427.914C184.517 427.914 183.551 427.439 182.784 426.489C182.751 427.822 182.734 429.022 182.734 430.089L182.759 434.489C182.759 434.872 182.626 435.172 182.359 435.389C182.109 435.589 181.792 435.689 181.409 435.689C180.959 435.689 180.734 435.414 180.734 434.864C180.751 433.864 180.759 431.489 180.759 427.739V420.639C180.759 420.339 180.851 420.064 181.034 419.814C181.234 419.547 181.459 419.414 181.709 419.414C181.992 419.414 182.234 419.489 182.434 419.639C182.651 419.789 182.767 419.997 182.784 420.264C182.851 422.047 183.142 423.405 183.659 424.339C184.176 425.272 184.817 425.739 185.584 425.739C186.284 425.739 186.909 425.622 187.459 425.389C188.009 425.139 188.451 424.855 188.784 424.539C189.134 424.205 189.459 423.755 189.759 423.189C190.192 422.405 190.626 421.38 191.059 420.114ZM199.852 430.064L197.352 430.039L197.402 433.314C197.402 433.764 197.394 433.997 197.377 434.014L201.702 433.939C202.185 433.989 202.427 434.197 202.427 434.564C202.427 435.264 202.102 435.614 201.452 435.614L196.552 435.664C196.135 435.664 195.877 435.505 195.777 435.189C195.677 434.872 195.627 434.447 195.627 433.914V429.764C195.41 429.647 195.302 429.464 195.302 429.214C195.302 428.997 195.394 428.797 195.577 428.614C195.527 427.314 195.502 426.13 195.502 425.064C195.502 424.447 195.877 424.13 196.627 424.114H197.327L201.702 424.189H201.727C202.26 424.272 202.527 424.522 202.527 424.939C202.527 425.255 202.427 425.48 202.227 425.614C201.794 425.847 200.752 425.964 199.102 425.964C198.502 425.964 197.885 425.939 197.252 425.889C197.252 427.455 197.26 428.297 197.277 428.414C197.71 428.43 198.985 428.439 201.102 428.439C201.619 428.505 201.877 428.739 201.877 429.139C201.877 429.339 201.794 429.53 201.627 429.714C201.46 429.897 201.277 430.005 201.077 430.039C200.994 430.039 200.86 430.047 200.677 430.064C200.494 430.064 200.219 430.064 199.852 430.064ZM213.824 424.664C213.824 425.347 213.041 425.689 211.474 425.689L209.824 425.639L209.774 431.564L209.799 433.439C209.816 433.772 209.824 434.239 209.824 434.839C209.824 435.072 209.716 435.272 209.499 435.439C209.299 435.589 209.074 435.664 208.824 435.664C208.391 435.664 208.174 435.43 208.174 434.964C208.124 433.314 208.099 431.722 208.099 430.189C208.099 428.355 208.149 426.864 208.249 425.714C207.133 425.797 206.116 425.839 205.199 425.839C204.683 425.839 204.424 425.622 204.424 425.189C204.424 424.989 204.516 424.789 204.699 424.589C204.899 424.389 205.116 424.28 205.349 424.264L213.149 424.014C213.599 424.114 213.824 424.33 213.824 424.664ZM218.166 431.189C217.683 432.955 217.4 434.222 217.316 434.989C217.25 435.405 216.95 435.614 216.416 435.614C215.9 435.614 215.641 435.397 215.641 434.964C215.641 433.964 216.125 431.964 217.091 428.964C217.491 427.647 217.975 426.497 218.541 425.514C219.058 424.597 219.575 424.139 220.091 424.139C220.358 424.139 220.591 424.297 220.791 424.614C220.958 424.88 221.316 425.605 221.866 426.789C222.416 427.989 222.858 429.18 223.191 430.364C223.508 431.48 223.891 433.014 224.341 434.964C224.341 435.164 224.266 435.33 224.116 435.464C223.966 435.597 223.783 435.664 223.566 435.664C223.016 435.664 222.683 435.43 222.566 434.964L221.691 431.539C220.241 431.539 219.066 431.422 218.166 431.189ZM221.266 429.864C220.916 428.597 220.5 427.455 220.016 426.439C219.466 427.355 219.016 428.397 218.666 429.564C219.4 429.764 220.266 429.864 221.266 429.864ZM237.177 420.114C237.427 419.38 237.835 419.014 238.402 419.014C238.785 419.014 239.044 419.305 239.177 419.889C239.26 422.922 239.302 425.889 239.302 428.789C239.302 431.822 239.285 433.672 239.252 434.339C239.219 434.855 239.11 435.214 238.927 435.414C238.744 435.597 238.41 435.689 237.927 435.689C237.494 435.689 237.277 435.422 237.277 434.889V429.239C237.277 428.655 237.26 427.714 237.227 426.414L237.177 424.589C236.594 425.572 235.844 426.372 234.927 426.989C234.01 427.605 232.969 427.914 231.802 427.914C230.635 427.914 229.669 427.439 228.902 426.489C228.869 427.822 228.852 429.022 228.852 430.089L228.877 434.489C228.877 434.872 228.744 435.172 228.477 435.389C228.227 435.589 227.91 435.689 227.527 435.689C227.077 435.689 226.852 435.414 226.852 434.864C226.869 433.864 226.877 431.489 226.877 427.739V420.639C226.877 420.339 226.969 420.064 227.152 419.814C227.352 419.547 227.577 419.414 227.827 419.414C228.11 419.414 228.352 419.489 228.552 419.639C228.769 419.789 228.885 419.997 228.902 420.264C228.969 422.047 229.26 423.405 229.777 424.339C230.294 425.272 230.935 425.739 231.702 425.739C232.402 425.739 233.027 425.622 233.577 425.389C234.127 425.139 234.569 424.855 234.902 424.539C235.252 424.205 235.577 423.755 235.877 423.189C236.31 422.405 236.744 421.38 237.177 420.114ZM244.045 431.189C243.562 432.955 243.279 434.222 243.195 434.989C243.129 435.405 242.829 435.614 242.295 435.614C241.779 435.614 241.52 435.397 241.52 434.964C241.52 433.964 242.004 431.964 242.97 428.964C243.37 427.647 243.854 426.497 244.42 425.514C244.937 424.597 245.454 424.139 245.97 424.139C246.237 424.139 246.47 424.297 246.67 424.614C246.837 424.88 247.195 425.605 247.745 426.789C248.295 427.989 248.737 429.18 249.07 430.364C249.387 431.48 249.77 433.014 250.22 434.964C250.22 435.164 250.145 435.33 249.995 435.464C249.845 435.597 249.662 435.664 249.445 435.664C248.895 435.664 248.562 435.43 248.445 434.964L247.57 431.539C246.12 431.539 244.945 431.422 244.045 431.189ZM247.145 429.864C246.795 428.597 246.379 427.455 245.895 426.439C245.345 427.355 244.895 428.397 244.545 429.564C245.279 429.764 246.145 429.864 247.145 429.864ZM259.206 424.539C259.823 424.822 260.131 425.205 260.131 425.689C260.131 425.905 260.056 426.089 259.906 426.239C259.773 426.372 259.631 426.439 259.481 426.439C259.214 426.439 258.789 426.305 258.206 426.039C257.656 425.772 257.123 425.639 256.606 425.639C256.123 425.639 255.623 425.772 255.106 426.039C254.589 426.289 254.331 426.605 254.331 426.989C254.331 427.372 254.648 427.714 255.281 428.014C255.864 428.297 256.614 428.555 257.531 428.789C258.431 429.022 259.006 429.239 259.256 429.439C259.506 429.605 259.714 429.772 259.881 429.939C260.031 430.072 260.164 430.33 260.281 430.714C260.414 431.08 260.481 431.522 260.481 432.039C260.481 433.255 260.081 434.164 259.281 434.764C258.498 435.347 257.556 435.639 256.456 435.639C255.373 435.639 254.439 435.464 253.656 435.114C252.873 434.764 252.481 434.33 252.481 433.814C252.481 433.58 252.564 433.372 252.731 433.189C252.898 432.989 253.089 432.889 253.306 432.889C253.356 432.889 253.431 432.905 253.531 432.939C255.081 433.555 256.064 433.864 256.481 433.864C257.181 433.864 257.723 433.689 258.106 433.339C258.506 432.989 258.706 432.53 258.706 431.964C258.706 431.514 258.564 431.155 258.281 430.889C257.998 430.622 257.648 430.422 257.231 430.289C256.831 430.139 256.281 429.989 255.581 429.839L254.656 429.614C254.023 429.43 253.506 429.139 253.106 428.739C252.673 428.305 252.456 427.705 252.456 426.939C252.456 426.155 252.856 425.489 253.656 424.939C254.439 424.372 255.414 424.089 256.581 424.089C257.714 424.089 258.589 424.239 259.206 424.539ZM263.791 435.664C263.291 435.664 263.049 435.405 263.066 434.889V433.564C263.066 432.647 263.016 431.255 262.916 429.389C262.816 427.422 262.732 426.239 262.666 425.839C262.599 425.422 262.566 425.097 262.566 424.864C262.566 424.714 262.674 424.555 262.891 424.389C263.107 424.205 263.332 424.114 263.566 424.114C263.849 424.114 264.074 424.264 264.241 424.564C264.591 425.33 264.766 426.93 264.766 429.364C265.899 428.43 266.732 427.672 267.266 427.089C267.916 426.389 268.557 425.564 269.191 424.614C269.424 424.264 269.699 424.089 270.016 424.089C270.649 424.089 270.966 424.297 270.966 424.714C270.966 425.514 269.891 427.014 267.741 429.214C268.641 430.014 269.499 431.064 270.316 432.364C271.132 433.597 271.541 434.38 271.541 434.714C271.541 434.997 271.457 435.222 271.291 435.389C271.124 435.555 270.916 435.639 270.666 435.639C270.449 435.639 270.199 435.472 269.916 435.139C269.649 434.789 269.257 434.205 268.741 433.389C268.324 432.689 267.949 432.139 267.616 431.739C267.266 431.272 266.824 430.822 266.291 430.389C265.807 430.822 265.316 431.214 264.816 431.564L264.891 434.839C264.891 435.389 264.524 435.664 263.791 435.664ZM276.346 433.089C276.612 433.355 276.771 433.714 276.821 434.164C276.821 434.53 276.679 434.872 276.396 435.189C276.129 435.489 275.821 435.639 275.471 435.639C275.087 435.639 274.762 435.539 274.496 435.339C274.229 435.139 274.096 434.847 274.096 434.464C274.096 434.047 274.229 433.647 274.496 433.264C274.762 432.864 275.062 432.664 275.396 432.664C275.762 432.664 276.079 432.805 276.346 433.089Z" fill="black"/>
<path d="M93.3906 261.031L92.5156 267.625C92.2135 267.542 91.9115 267.484 91.6094 267.453C91.3073 267.422 91.0052 267.406 90.7031 267.406C89.9323 267.406 89.1979 267.51 88.5 267.719C87.8021 267.917 87.1823 268.224 86.6406 268.641C86.1094 269.057 85.6823 269.578 85.3594 270.203C85.0469 270.828 84.8906 271.562 84.8906 272.406C84.8906 272.948 84.974 273.417 85.1406 273.812C85.3177 274.208 85.5625 274.536 85.875 274.797C86.1875 275.057 86.5573 275.25 86.9844 275.375C87.4115 275.5 87.8802 275.562 88.3906 275.562C88.776 275.562 89.1771 275.521 89.5938 275.438C90.0104 275.354 90.4219 275.245 90.8281 275.109C91.2344 274.974 91.6302 274.818 92.0156 274.641C92.401 274.464 92.7552 274.281 93.0781 274.094L92.4531 281.438C92.0469 281.646 91.6042 281.833 91.125 282C90.6562 282.156 90.1719 282.297 89.6719 282.422C89.1719 282.536 88.6719 282.625 88.1719 282.688C87.6719 282.75 87.1927 282.781 86.7344 282.781C85.4115 282.781 84.1771 282.536 83.0312 282.047C81.8854 281.557 80.8906 280.885 80.0469 280.031C79.2031 279.177 78.5365 278.172 78.0469 277.016C77.5677 275.849 77.3281 274.594 77.3281 273.25C77.3281 271.469 77.5833 269.792 78.0938 268.219C78.6042 266.635 79.3542 265.25 80.3438 264.062C81.3333 262.875 82.5573 261.938 84.0156 261.25C85.4844 260.562 87.1719 260.219 89.0781 260.219C89.7969 260.219 90.5312 260.276 91.2812 260.391C92.0417 260.505 92.7448 260.719 93.3906 261.031ZM113.438 271.031C113.438 271.979 113.328 272.896 113.109 273.781C112.891 274.656 112.573 275.479 112.156 276.25C111.75 277.021 111.25 277.729 110.656 278.375C110.073 279.01 109.411 279.557 108.672 280.016C107.943 280.474 107.146 280.833 106.281 281.094C105.417 281.344 104.5 281.469 103.531 281.469C102.594 281.469 101.698 281.349 100.844 281.109C100 280.87 99.2083 280.536 98.4688 280.109C97.7292 279.672 97.0573 279.151 96.4531 278.547C95.8594 277.932 95.349 277.255 94.9219 276.516C94.5052 275.766 94.1771 274.964 93.9375 274.109C93.7083 273.255 93.5938 272.365 93.5938 271.438C93.5938 270.531 93.7031 269.646 93.9219 268.781C94.1406 267.906 94.4531 267.083 94.8594 266.312C95.276 265.542 95.776 264.833 96.3594 264.188C96.9427 263.542 97.5938 262.984 98.3125 262.516C99.0417 262.047 99.8281 261.682 100.672 261.422C101.516 261.161 102.406 261.031 103.344 261.031C104.854 261.031 106.229 261.266 107.469 261.734C108.719 262.203 109.781 262.875 110.656 263.75C111.542 264.615 112.224 265.667 112.703 266.906C113.193 268.135 113.438 269.51 113.438 271.031ZM106.5 271.438C106.5 270.99 106.432 270.557 106.297 270.141C106.172 269.714 105.984 269.339 105.734 269.016C105.484 268.682 105.172 268.417 104.797 268.219C104.432 268.01 104.01 267.906 103.531 267.906C103.042 267.906 102.604 267.995 102.219 268.172C101.833 268.349 101.5 268.594 101.219 268.906C100.948 269.208 100.74 269.568 100.594 269.984C100.448 270.391 100.375 270.823 100.375 271.281C100.375 271.719 100.438 272.156 100.562 272.594C100.688 273.031 100.875 273.427 101.125 273.781C101.375 274.135 101.682 274.422 102.047 274.641C102.422 274.859 102.854 274.969 103.344 274.969C103.833 274.969 104.271 274.875 104.656 274.688C105.052 274.49 105.385 274.229 105.656 273.906C105.927 273.573 106.135 273.193 106.281 272.766C106.427 272.339 106.5 271.896 106.5 271.438ZM133.734 275.094C133.734 276.271 133.719 277.438 133.688 278.594C133.667 279.74 133.63 280.896 133.578 282.062L124.578 281.906C124.891 280.062 125.161 278.224 125.391 276.391C125.62 274.547 125.734 272.688 125.734 270.812C125.734 270.677 125.729 270.458 125.719 270.156C125.708 269.854 125.688 269.516 125.656 269.141C125.625 268.755 125.578 268.365 125.516 267.969C125.464 267.562 125.385 267.193 125.281 266.859C125.188 266.526 125.068 266.255 124.922 266.047C124.786 265.828 124.62 265.719 124.422 265.719C124.068 265.719 123.766 265.823 123.516 266.031C123.276 266.24 123.073 266.51 122.906 266.844C122.75 267.167 122.625 267.531 122.531 267.938C122.438 268.344 122.365 268.75 122.312 269.156C122.271 269.562 122.24 269.948 122.219 270.312C122.208 270.667 122.203 270.958 122.203 271.188C122.151 273.031 122.109 274.865 122.078 276.688C122.047 278.5 122.005 280.333 121.953 282.188L113.984 282.531C114.193 278.854 114.391 275.198 114.578 271.562C114.776 267.927 114.932 264.271 115.047 260.594L122.422 260.219L122.359 262.719C122.651 262.365 122.964 262.031 123.297 261.719C123.641 261.406 124.005 261.141 124.391 260.922C124.776 260.693 125.182 260.516 125.609 260.391C126.047 260.255 126.505 260.188 126.984 260.188C127.87 260.188 128.646 260.333 129.312 260.625C129.979 260.917 130.552 261.312 131.031 261.812C131.51 262.312 131.911 262.906 132.234 263.594C132.557 264.271 132.818 264.995 133.016 265.766C133.214 266.536 133.365 267.344 133.469 268.188C133.573 269.021 133.641 269.844 133.672 270.656C133.714 271.469 133.734 272.255 133.734 273.016C133.734 273.776 133.734 274.469 133.734 275.094ZM154.609 275.094C154.609 276.271 154.594 277.438 154.562 278.594C154.542 279.74 154.505 280.896 154.453 282.062L145.453 281.906C145.766 280.062 146.036 278.224 146.266 276.391C146.495 274.547 146.609 272.688 146.609 270.812C146.609 270.677 146.604 270.458 146.594 270.156C146.583 269.854 146.562 269.516 146.531 269.141C146.5 268.755 146.453 268.365 146.391 267.969C146.339 267.562 146.26 267.193 146.156 266.859C146.062 266.526 145.943 266.255 145.797 266.047C145.661 265.828 145.495 265.719 145.297 265.719C144.943 265.719 144.641 265.823 144.391 266.031C144.151 266.24 143.948 266.51 143.781 266.844C143.625 267.167 143.5 267.531 143.406 267.938C143.312 268.344 143.24 268.75 143.188 269.156C143.146 269.562 143.115 269.948 143.094 270.312C143.083 270.667 143.078 270.958 143.078 271.188C143.026 273.031 142.984 274.865 142.953 276.688C142.922 278.5 142.88 280.333 142.828 282.188L134.859 282.531C135.068 278.854 135.266 275.198 135.453 271.562C135.651 267.927 135.807 264.271 135.922 260.594L143.297 260.219L143.234 262.719C143.526 262.365 143.839 262.031 144.172 261.719C144.516 261.406 144.88 261.141 145.266 260.922C145.651 260.693 146.057 260.516 146.484 260.391C146.922 260.255 147.38 260.188 147.859 260.188C148.745 260.188 149.521 260.333 150.188 260.625C150.854 260.917 151.427 261.312 151.906 261.812C152.385 262.312 152.786 262.906 153.109 263.594C153.432 264.271 153.693 264.995 153.891 265.766C154.089 266.536 154.24 267.344 154.344 268.188C154.448 269.021 154.516 269.844 154.547 270.656C154.589 271.469 154.609 272.255 154.609 273.016C154.609 273.776 154.609 274.469 154.609 275.094ZM173.531 270.375C173.531 271.281 173.469 272.188 173.344 273.094C171.562 273.208 169.792 273.396 168.031 273.656C166.271 273.906 164.51 274.156 162.75 274.406C163.021 275.156 163.443 275.755 164.016 276.203C164.599 276.651 165.292 276.875 166.094 276.875C166.51 276.875 166.964 276.797 167.453 276.641C167.953 276.484 168.448 276.292 168.938 276.062C169.427 275.823 169.896 275.568 170.344 275.297C170.792 275.026 171.177 274.781 171.5 274.562L170.75 281.656C170.344 281.969 169.901 282.234 169.422 282.453C168.953 282.672 168.464 282.849 167.953 282.984C167.443 283.12 166.927 283.219 166.406 283.281C165.885 283.344 165.375 283.375 164.875 283.375C163.844 283.375 162.901 283.234 162.047 282.953C161.193 282.672 160.417 282.281 159.719 281.781C159.031 281.271 158.427 280.672 157.906 279.984C157.385 279.297 156.953 278.547 156.609 277.734C156.266 276.922 156.005 276.062 155.828 275.156C155.651 274.25 155.562 273.333 155.562 272.406C155.562 271.438 155.651 270.469 155.828 269.5C156.005 268.531 156.271 267.599 156.625 266.703C156.99 265.807 157.443 264.979 157.984 264.219C158.536 263.448 159.177 262.776 159.906 262.203C160.635 261.63 161.458 261.182 162.375 260.859C163.302 260.536 164.323 260.375 165.438 260.375C166.365 260.375 167.208 260.505 167.969 260.766C168.74 261.016 169.422 261.37 170.016 261.828C170.62 262.276 171.141 262.812 171.578 263.438C172.026 264.062 172.391 264.75 172.672 265.5C172.964 266.24 173.177 267.026 173.312 267.859C173.458 268.682 173.531 269.521 173.531 270.375ZM167.281 269.562C167.281 269.271 167.25 268.974 167.188 268.672C167.125 268.359 167.021 268.078 166.875 267.828C166.74 267.578 166.557 267.375 166.328 267.219C166.099 267.052 165.812 266.969 165.469 266.969C165.052 266.969 164.682 267.083 164.359 267.312C164.047 267.531 163.776 267.812 163.547 268.156C163.318 268.49 163.13 268.854 162.984 269.25C162.839 269.646 162.729 270.01 162.656 270.344L167.281 269.906V269.562ZM189.469 261.656L188.906 268.25C188.604 268.167 188.307 268.109 188.016 268.078C187.724 268.047 187.427 268.031 187.125 268.031C186.385 268.031 185.677 268.125 185 268.312C184.333 268.5 183.74 268.786 183.219 269.172C182.708 269.557 182.297 270.047 181.984 270.641C181.682 271.224 181.531 271.917 181.531 272.719C181.531 273.302 181.615 273.812 181.781 274.25C181.958 274.677 182.203 275.036 182.516 275.328C182.839 275.609 183.224 275.823 183.672 275.969C184.13 276.115 184.635 276.188 185.188 276.188C185.573 276.188 185.969 276.151 186.375 276.078C186.781 275.995 187.188 275.885 187.594 275.75C188 275.615 188.391 275.458 188.766 275.281C189.141 275.104 189.49 274.917 189.812 274.719L189.562 282.062C189.156 282.271 188.719 282.458 188.25 282.625C187.781 282.781 187.297 282.917 186.797 283.031C186.307 283.156 185.812 283.25 185.312 283.312C184.823 283.375 184.354 283.406 183.906 283.406C182.427 283.406 181.078 283.13 179.859 282.578C178.651 282.026 177.609 281.276 176.734 280.328C175.87 279.37 175.198 278.26 174.719 277C174.24 275.74 174 274.396 174 272.969C174 271.26 174.24 269.667 174.719 268.188C175.208 266.708 175.922 265.427 176.859 264.344C177.807 263.25 178.974 262.396 180.359 261.781C181.755 261.156 183.354 260.844 185.156 260.844C185.875 260.844 186.604 260.901 187.344 261.016C188.083 261.13 188.792 261.344 189.469 261.656ZM207.516 260.969L207.359 267.594L202.703 267.781L202.141 282.281L195.547 282.625L194.953 268.125L190.297 268.375L190.484 261L207.516 260.969ZM233.922 261.844L226.578 273.844L226.797 282.688H218.766L218.953 273.906L213.234 262.312L221.203 261.312L223.703 268.062L226.422 261.312L233.922 261.844ZM251.625 271.031C251.625 271.979 251.516 272.896 251.297 273.781C251.078 274.656 250.76 275.479 250.344 276.25C249.938 277.021 249.438 277.729 248.844 278.375C248.26 279.01 247.599 279.557 246.859 280.016C246.13 280.474 245.333 280.833 244.469 281.094C243.604 281.344 242.688 281.469 241.719 281.469C240.781 281.469 239.885 281.349 239.031 281.109C238.188 280.87 237.396 280.536 236.656 280.109C235.917 279.672 235.245 279.151 234.641 278.547C234.047 277.932 233.536 277.255 233.109 276.516C232.693 275.766 232.365 274.964 232.125 274.109C231.896 273.255 231.781 272.365 231.781 271.438C231.781 270.531 231.891 269.646 232.109 268.781C232.328 267.906 232.641 267.083 233.047 266.312C233.464 265.542 233.964 264.833 234.547 264.188C235.13 263.542 235.781 262.984 236.5 262.516C237.229 262.047 238.016 261.682 238.859 261.422C239.703 261.161 240.594 261.031 241.531 261.031C243.042 261.031 244.417 261.266 245.656 261.734C246.906 262.203 247.969 262.875 248.844 263.75C249.729 264.615 250.411 265.667 250.891 266.906C251.38 268.135 251.625 269.51 251.625 271.031ZM244.688 271.438C244.688 270.99 244.62 270.557 244.484 270.141C244.359 269.714 244.172 269.339 243.922 269.016C243.672 268.682 243.359 268.417 242.984 268.219C242.62 268.01 242.198 267.906 241.719 267.906C241.229 267.906 240.792 267.995 240.406 268.172C240.021 268.349 239.688 268.594 239.406 268.906C239.135 269.208 238.927 269.568 238.781 269.984C238.635 270.391 238.562 270.823 238.562 271.281C238.562 271.719 238.625 272.156 238.75 272.594C238.875 273.031 239.062 273.427 239.312 273.781C239.562 274.135 239.87 274.422 240.234 274.641C240.609 274.859 241.042 274.969 241.531 274.969C242.021 274.969 242.458 274.875 242.844 274.688C243.24 274.49 243.573 274.229 243.844 273.906C244.115 273.573 244.323 273.193 244.469 272.766C244.615 272.339 244.688 271.896 244.688 271.438ZM271.344 261C270.875 264.667 270.474 268.318 270.141 271.953C269.807 275.578 269.49 279.229 269.188 282.906L262.781 283.375L263.062 280.969C262.854 281.208 262.609 281.417 262.328 281.594C262.057 281.771 261.766 281.917 261.453 282.031C261.141 282.135 260.818 282.214 260.484 282.266C260.151 282.307 259.833 282.323 259.531 282.312C258.823 282.302 258.156 282.167 257.531 281.906C256.906 281.635 256.333 281.281 255.812 280.844C255.292 280.396 254.823 279.88 254.406 279.297C253.99 278.703 253.635 278.083 253.344 277.438C253.062 276.781 252.844 276.115 252.688 275.438C252.542 274.76 252.469 274.104 252.469 273.469C252.469 272.531 252.484 271.562 252.516 270.562C252.557 269.552 252.625 268.542 252.719 267.531C252.812 266.521 252.932 265.521 253.078 264.531C253.234 263.542 253.427 262.594 253.656 261.688C254.927 261.75 256.203 261.807 257.484 261.859C258.766 261.911 260.042 261.927 261.312 261.906C261.073 262.812 260.833 263.724 260.594 264.641C260.365 265.547 260.156 266.464 259.969 267.391C259.781 268.307 259.63 269.229 259.516 270.156C259.401 271.083 259.344 272.021 259.344 272.969C259.344 273.188 259.354 273.5 259.375 273.906C259.396 274.312 259.448 274.714 259.531 275.109C259.625 275.505 259.76 275.854 259.938 276.156C260.125 276.448 260.385 276.594 260.719 276.594C261.115 276.594 261.469 276.427 261.781 276.094C262.094 275.75 262.37 275.292 262.609 274.719C262.849 274.146 263.052 273.484 263.219 272.734C263.396 271.984 263.542 271.203 263.656 270.391C263.781 269.568 263.88 268.74 263.953 267.906C264.026 267.073 264.078 266.292 264.109 265.562C264.151 264.823 264.177 264.161 264.188 263.578C264.208 262.995 264.219 262.542 264.219 262.219C264.219 262.01 264.214 261.807 264.203 261.609C264.193 261.411 264.177 261.208 264.156 261C264.833 261.021 265.505 261.036 266.172 261.047C266.839 261.057 267.51 261.062 268.188 261.062C268.708 261.062 269.229 261.062 269.75 261.062C270.281 261.052 270.812 261.031 271.344 261ZM290.594 267.938C290.594 268.75 290.521 269.49 290.375 270.156C290.24 270.812 290.021 271.417 289.719 271.969C289.417 272.521 289.026 273.031 288.547 273.5C288.068 273.969 287.49 274.417 286.812 274.844L290.531 281.469L283.5 282.844L281.094 276.188L279.156 276.25L278.875 282.75H272.156C272.208 280.375 272.255 278.01 272.297 275.656C272.349 273.302 272.406 270.938 272.469 268.562C272.49 267.365 272.51 266.177 272.531 265C272.552 263.823 272.594 262.635 272.656 261.438C273.385 261.167 274.104 260.943 274.812 260.766C275.521 260.589 276.229 260.453 276.938 260.359C277.656 260.255 278.38 260.188 279.109 260.156C279.849 260.115 280.604 260.094 281.375 260.094C282.562 260.094 283.708 260.26 284.812 260.594C285.927 260.917 286.911 261.406 287.766 262.062C288.62 262.719 289.302 263.536 289.812 264.516C290.333 265.495 290.594 266.635 290.594 267.938ZM283.594 268.438C283.594 268 283.531 267.599 283.406 267.234C283.292 266.87 283.115 266.557 282.875 266.297C282.646 266.026 282.354 265.818 282 265.672C281.656 265.516 281.25 265.438 280.781 265.438C280.573 265.438 280.37 265.453 280.172 265.484C279.974 265.505 279.781 265.542 279.594 265.594L279.344 271.406H279.719C280.167 271.406 280.62 271.349 281.078 271.234C281.547 271.12 281.964 270.943 282.328 270.703C282.703 270.464 283.005 270.156 283.234 269.781C283.474 269.406 283.594 268.958 283.594 268.438ZM156.641 299.312L152.984 320.344L144.109 320.531L142.203 309.938L140.297 319.719L131.422 320.031L127.734 299.938L135.484 299.25L137.047 311.594L139.141 300.188H145.234L147.672 311.75L148.922 298.625L156.641 299.312ZM176.062 319.656L168.312 320.656L167.375 317.125H163.812L163.031 320.656L155.062 319.875L161.281 299.062L169.969 298.625L176.062 319.656ZM166.812 312.344L165.625 306.906L164.469 312.344H166.812ZM190.094 312.719L189.438 319.656L176.281 320.688L176.781 298.375H184.906L183.75 312.719H190.094ZM204.531 312.719L203.875 319.656L190.719 320.688L191.219 298.375H199.344L198.188 312.719H204.531ZM222.703 308.375C222.703 309.281 222.641 310.188 222.516 311.094C220.734 311.208 218.964 311.396 217.203 311.656C215.443 311.906 213.682 312.156 211.922 312.406C212.193 313.156 212.615 313.755 213.188 314.203C213.771 314.651 214.464 314.875 215.266 314.875C215.682 314.875 216.135 314.797 216.625 314.641C217.125 314.484 217.62 314.292 218.109 314.062C218.599 313.823 219.068 313.568 219.516 313.297C219.964 313.026 220.349 312.781 220.672 312.562L219.922 319.656C219.516 319.969 219.073 320.234 218.594 320.453C218.125 320.672 217.635 320.849 217.125 320.984C216.615 321.12 216.099 321.219 215.578 321.281C215.057 321.344 214.547 321.375 214.047 321.375C213.016 321.375 212.073 321.234 211.219 320.953C210.365 320.672 209.589 320.281 208.891 319.781C208.203 319.271 207.599 318.672 207.078 317.984C206.557 317.297 206.125 316.547 205.781 315.734C205.438 314.922 205.177 314.062 205 313.156C204.823 312.25 204.734 311.333 204.734 310.406C204.734 309.438 204.823 308.469 205 307.5C205.177 306.531 205.443 305.599 205.797 304.703C206.161 303.807 206.615 302.979 207.156 302.219C207.708 301.448 208.349 300.776 209.078 300.203C209.807 299.63 210.63 299.182 211.547 298.859C212.474 298.536 213.495 298.375 214.609 298.375C215.536 298.375 216.38 298.505 217.141 298.766C217.911 299.016 218.594 299.37 219.188 299.828C219.792 300.276 220.312 300.812 220.75 301.438C221.198 302.062 221.562 302.75 221.844 303.5C222.135 304.24 222.349 305.026 222.484 305.859C222.63 306.682 222.703 307.521 222.703 308.375ZM216.453 307.562C216.453 307.271 216.422 306.974 216.359 306.672C216.297 306.359 216.193 306.078 216.047 305.828C215.911 305.578 215.729 305.375 215.5 305.219C215.271 305.052 214.984 304.969 214.641 304.969C214.224 304.969 213.854 305.083 213.531 305.312C213.219 305.531 212.948 305.812 212.719 306.156C212.49 306.49 212.302 306.854 212.156 307.25C212.01 307.646 211.901 308.01 211.828 308.344L216.453 307.906V307.562ZM240.281 298.969L240.125 305.594L235.469 305.781L234.906 320.281L228.312 320.625L227.719 306.125L223.062 306.375L223.25 299L240.281 298.969Z" fill="black"/>
<path d="M182 64.6639C212.377 64.6639 237 89.2867 237 119.664C237 150.041 212.377 174.664 182 174.664C151.623 174.664 127 150.041 127 119.664C126.992 111.271 128.909 102.987 132.603 95.4508C136.297 87.9143 141.67 81.3251 148.309 76.1898L148.629 76.5817L149.488 77.6336C161.671 92.5523 167.968 100.297 168.381 100.864C169.068 101.82 168.81 102.676 167.628 103.35C166.971 103.724 165.617 104.102 164.943 104.102C164.177 104.102 163.314 103.735 162.685 103.14C162.517 102.96 162.363 102.768 162.224 102.566L161.928 102.157C161 100.837 159.247 98.1692 156.315 93.6248C154.379 90.5916 152.417 87.5745 150.43 84.5739L150.389 84.5395C150.382 84.5395 150.385 84.5533 150.403 84.5945L150.513 84.8145C150.867 85.4951 152.125 87.7433 155.992 94.6664C159.588 101.101 160.804 103.374 160.804 103.68C160.804 104.298 160.633 104.621 159.869 105.474C158.598 106.894 158.03 108.489 157.618 111.789C157.157 115.491 155.865 118.103 152.276 122.575C150.179 125.195 149.835 125.676 149.303 126.731C148.636 128.058 148.453 128.804 148.378 130.482C148.299 132.255 148.453 133.404 148.997 135.098C149.471 136.583 149.966 137.566 151.231 139.526C152.324 141.22 152.953 142.479 152.953 142.97C152.953 143.362 153.029 143.362 154.723 142.98C158.776 142.066 162.066 140.454 163.919 138.481C165.063 137.26 165.332 136.587 165.342 134.913C165.345 133.82 165.308 133.589 165.012 132.96C164.531 131.936 163.654 131.083 161.722 129.763C159.189 128.031 158.109 126.635 157.81 124.72C157.563 123.15 157.848 122.039 159.251 119.104C160.698 116.065 161.059 114.772 161.303 111.71C161.458 109.73 161.674 108.949 162.245 108.324C162.836 107.67 163.372 107.447 164.84 107.248C167.233 106.921 168.755 106.302 170.007 105.151C171.093 104.147 171.547 103.181 171.615 101.73L171.67 100.63L171.062 99.9223L170.993 99.8398C169.852 98.5336 162.65 90.5895 149.392 76.0111L149.041 75.6295C158.546 68.4944 170.115 64.6455 182 64.6639ZM182.165 135.889C180.604 135.49 177.796 135.38 176.108 135.655C172.193 136.291 167.899 138.36 164.445 141.275L163.417 142.145L164.321 142.283C169.034 143.022 170.302 143.675 173.575 147.044C175.455 148.982 176.091 149.415 177.652 149.811C179.944 150.395 182.206 149.323 182.98 147.277C183.327 146.363 183.282 144.847 182.883 144.087C181.938 142.279 179.185 141.695 177.854 143.022C176.744 144.122 177.067 145.785 178.446 146.074C178.762 146.14 178.755 146.126 178.367 145.95C177.762 145.675 177.5 145.297 177.497 144.696C177.49 143.286 179.106 142.492 180.608 143.17C181.708 143.665 182.148 144.314 182.148 145.452C182.152 145.861 182.068 146.265 181.902 146.639C181.736 147.012 181.492 147.346 181.186 147.617C180.88 147.888 180.519 148.09 180.128 148.209C179.737 148.328 179.325 148.362 178.92 148.309C177.902 148.146 176.964 147.656 176.249 146.913C174.719 145.18 175.314 142.451 177.452 141.403C179.078 140.605 181.24 140.801 182.918 141.901C184.843 143.163 185.664 144.314 187.325 148.099C187.864 149.333 188.562 150.718 188.872 151.182C190.439 153.537 192.323 154.689 194.592 154.689C195.843 154.689 196.785 154.462 197.971 153.87C198.851 153.43 200.095 152.599 200.006 152.506C199.726 152.556 199.453 152.64 199.194 152.757C196.719 153.723 194.2 153.657 192.739 152.585C191.818 151.915 191.075 150.57 190.693 148.893C190.515 147.945 190.353 146.994 190.209 146.04C189.7 142.802 189.212 141.344 188.074 139.674C186.905 137.965 184.671 136.528 182.165 135.889ZM198.809 118.856C198.741 118.856 198.624 119.066 198.552 119.32C197.874 121.716 198.156 124.28 199.394 126.938L199.617 127.402C200.188 128.546 200.93 129.725 203.158 133.063C205.327 136.319 206.403 138.244 206.929 139.821C207.788 142.4 207.661 144.716 206.523 147.095C206.252 147.659 206.073 148.116 206.121 148.116C206.169 148.116 206.613 147.896 207.111 147.625C210.493 145.789 212.869 142.64 213.89 138.632C214.213 137.36 214.34 134.325 214.123 133.063C213.738 130.836 212.941 129.007 211.648 127.402C210.177 125.57 208.012 123.964 204.213 121.895C201.171 120.238 200.03 119.592 199.459 119.207C199.261 119.058 199.042 118.94 198.809 118.856ZM151.585 130.33C151.585 129.65 152.805 129.402 153.589 129.925C154.421 130.475 154.686 131.609 154.187 132.489C153.713 133.331 152.802 133.61 152.159 133.108C151.764 132.795 151.736 132.335 152.083 131.812C152.427 131.296 152.393 131.045 151.956 130.822C151.698 130.688 151.585 130.537 151.585 130.33ZM194.444 116.684L194.681 117.395C194.87 118.041 195.019 118.697 195.128 119.361C195.874 123.796 193.547 127.381 189.016 128.77C188.535 128.918 186.648 129.285 184.822 129.591C181.117 130.21 179.467 130.643 177.806 131.444C176.627 132.011 175.204 132.86 175.287 132.946C175.493 132.936 175.696 132.887 175.885 132.802C177.978 132.066 180.309 131.688 183.846 131.503C185.252 131.43 186.85 131.314 187.397 131.245C190.553 130.846 192.735 129.89 194.437 128.158C195.382 127.195 195.946 126.302 196.396 125.037C196.688 124.232 196.726 123.937 196.73 122.514C196.73 121.066 196.695 120.802 196.386 119.911C195.973 118.743 195.492 117.866 194.884 117.182L194.444 116.684ZM189.14 103.855C189.105 103.855 189.078 104.515 189.078 105.323C189.078 110.809 192.357 114.061 201.659 117.808C207.857 120.3 210.39 121.589 212.281 123.211C213.938 124.638 214.928 126.542 215.021 128.495C215.038 128.863 215.107 129.127 215.175 129.107C215.43 129.024 216.378 126.896 216.691 125.714C217.087 124.219 217.228 121.383 216.987 119.87C216.148 114.666 212.635 110.843 206.956 108.96C205.169 108.368 203.23 107.963 199.789 107.457C193.942 106.605 191.828 105.959 189.941 104.446C189.688 104.23 189.42 104.033 189.14 103.855ZM176.063 108.1C175.369 107.746 173.894 107.605 173.179 107.825C172.055 108.169 170.966 109.362 170.625 110.61C170.419 111.369 170.536 112.706 170.845 113.119C171.344 113.786 171.828 113.961 173.135 113.951C175.692 113.934 177.913 112.837 178.174 111.465C178.387 110.341 177.408 108.788 176.063 108.1ZM172.513 109.661C172.513 108.454 174.444 107.805 175.72 108.588C176.39 108.997 176.565 109.602 176.167 110.163C175.898 110.548 175.056 110.919 174.441 110.919C173.52 110.919 172.513 110.259 172.513 109.661ZM173.001 84.6392C171.56 84.2954 169.47 84.1133 168.587 84.2473C168.126 84.3161 168.168 84.3367 169.147 84.4879C172.722 85.0448 175.51 86.4611 178.353 89.1629C179.601 90.3489 180.859 91.8236 182.89 94.4911C187.469 100.496 189.411 102.17 193.265 103.429C195.527 104.164 197.813 104.508 201.848 104.721C206.317 104.958 208.001 105.316 209.6 106.371C210.483 106.955 211.174 107.684 211.862 108.75L212.264 109.369L212.178 108.688C211.858 106.075 209.992 102.397 207.613 99.7058L207.18 99.2142L206.96 100.201C206.41 102.686 205.22 104.47 204.113 104.474C203.846 104.472 203.584 104.395 203.358 104.251C203.132 104.108 202.951 103.904 202.835 103.662C202.591 103.078 202.611 102.865 202.972 102.184C203.643 100.93 203.808 99.252 203.478 97.0623C203.385 96.4298 203.244 95.8351 203.168 95.7458C202.928 95.4536 200.996 94.3295 199.772 93.7658C195.327 91.7101 190.009 91.0433 184.784 91.8854L183.547 92.0848L182.681 91.1189C179.415 87.4854 176.359 85.4401 173.001 84.6392ZM205.31 85.6258C205.282 85.6258 205.1 85.9764 204.908 86.4026C204.419 87.4786 204.179 88.6576 204.076 90.4451C204.01 91.5967 203.945 91.992 203.811 92.0401C203.608 92.1192 203.337 92.0367 201.68 91.4008C200.569 90.9711 197.806 90.1633 197.727 90.2458C197.706 90.2664 198.283 90.5483 199.012 90.8714C199.741 91.1945 200.923 91.8064 201.638 92.2326C204.474 93.9101 204.956 94.8864 204.959 98.9564C204.959 100.985 204.935 101.249 204.684 101.861C204.347 102.683 204.409 102.837 204.777 102.112C205.464 100.771 205.753 99.4239 205.794 97.3339C205.818 95.9933 205.86 95.7079 206.049 95.5189C206.255 95.3126 206.307 95.3126 206.64 95.4845C207.138 95.7389 209.39 97.5333 210.373 98.4511L211.174 99.2039L210.373 98.152C209.933 97.5711 208.716 96.227 207.668 95.1545C205.44 92.8754 205.262 92.5729 204.952 90.4623C204.712 88.7986 204.767 87.3686 205.124 86.327C205.218 86.1028 205.28 85.8669 205.31 85.6258ZM168.178 86.3476L168.095 87.3204C167.831 90.4623 169.061 94.6664 171.052 97.4061C172.598 99.5304 174.988 101.18 176.758 101.342C177.913 101.445 178.26 101.084 177.738 100.321C177.009 99.2589 176.115 97.6261 175.881 96.9248C175.606 95.9837 175.369 95.0319 175.17 94.0717C174.341 90.2045 173.523 88.6954 171.639 87.5508C170.695 87.037 169.682 86.6597 168.632 86.4301L168.178 86.3476Z" fill="black"/>
<path d="M182 61.6639C212.377 61.6639 237 86.2867 237 116.664C237 147.041 212.377 171.664 182 171.664C151.623 171.664 127 147.041 127 116.664C126.992 108.271 128.909 99.9874 132.603 92.4508C136.297 84.9143 141.67 78.3251 148.309 73.1898L148.629 73.5817L149.488 74.6336C161.671 89.5523 167.968 97.297 168.381 97.8642C169.068 98.8198 168.81 99.6758 167.628 100.35C166.971 100.724 165.617 101.102 164.943 101.102C164.177 101.102 163.314 100.735 162.685 100.14C162.517 99.9601 162.363 99.7682 162.224 99.5658L161.928 99.1567C161 97.8367 159.247 95.1692 156.315 90.6248C154.379 87.5916 152.417 84.5745 150.43 81.5739L150.389 81.5395C150.382 81.5395 150.385 81.5533 150.403 81.5945L150.513 81.8145C150.867 82.4951 152.125 84.7433 155.992 91.6664C159.588 98.1014 160.804 100.374 160.804 100.68C160.804 101.298 160.633 101.621 159.869 102.474C158.598 103.894 158.03 105.489 157.618 108.789C157.157 112.491 155.865 115.103 152.276 119.575C150.179 122.195 149.835 122.676 149.303 123.731C148.636 125.058 148.453 125.804 148.378 127.482C148.299 129.255 148.453 130.404 148.997 132.098C149.471 133.583 149.966 134.566 151.231 136.526C152.324 138.22 152.953 139.479 152.953 139.97C152.953 140.362 153.029 140.362 154.723 139.98C158.776 139.066 162.066 137.454 163.919 135.481C165.063 134.26 165.332 133.587 165.342 131.913C165.345 130.82 165.308 130.589 165.012 129.96C164.531 128.936 163.654 128.083 161.722 126.763C159.189 125.031 158.109 123.635 157.81 121.72C157.563 120.15 157.848 119.039 159.251 116.104C160.698 113.065 161.059 111.772 161.303 108.71C161.458 106.73 161.674 105.949 162.245 105.324C162.836 104.67 163.372 104.447 164.84 104.248C167.233 103.921 168.755 103.302 170.007 102.151C171.093 101.147 171.547 100.181 171.615 98.7304L171.67 97.6304L171.062 96.9223L170.993 96.8398C169.852 95.5336 162.65 87.5895 149.392 73.0111L149.041 72.6295C158.546 65.4944 170.115 61.6455 182 61.6639ZM182.165 132.889C180.604 132.49 177.796 132.38 176.108 132.655C172.193 133.291 167.899 135.36 164.445 138.275L163.417 139.145L164.321 139.283C169.034 140.022 170.302 140.675 173.575 144.044C175.455 145.982 176.091 146.415 177.652 146.811C179.944 147.395 182.206 146.323 182.98 144.277C183.327 143.363 183.282 141.847 182.883 141.087C181.938 139.279 179.185 138.695 177.854 140.022C176.744 141.122 177.067 142.785 178.446 143.074C178.762 143.14 178.755 143.126 178.367 142.95C177.762 142.675 177.5 142.297 177.497 141.696C177.49 140.286 179.106 139.492 180.608 140.17C181.708 140.665 182.148 141.314 182.148 142.452C182.152 142.861 182.068 143.265 181.902 143.639C181.736 144.012 181.492 144.346 181.186 144.617C180.88 144.888 180.519 145.09 180.128 145.209C179.737 145.328 179.325 145.362 178.92 145.309C177.902 145.146 176.964 144.656 176.249 143.913C174.719 142.18 175.314 139.451 177.452 138.403C179.078 137.605 181.24 137.801 182.918 138.901C184.843 140.163 185.664 141.314 187.325 145.099C187.864 146.333 188.562 147.718 188.872 148.182C190.439 150.537 192.323 151.689 194.592 151.689C195.843 151.689 196.785 151.462 197.971 150.87C198.851 150.43 200.095 149.599 200.006 149.506C199.726 149.556 199.453 149.64 199.194 149.757C196.719 150.723 194.2 150.657 192.739 149.585C191.818 148.915 191.075 147.57 190.693 145.893C190.515 144.945 190.353 143.994 190.209 143.04C189.7 139.802 189.212 138.344 188.074 136.674C186.905 134.965 184.671 133.528 182.165 132.889ZM198.809 115.856C198.741 115.856 198.624 116.066 198.552 116.32C197.874 118.716 198.156 121.28 199.394 123.938L199.617 124.402C200.188 125.546 200.93 126.725 203.158 130.063C205.327 133.319 206.403 135.244 206.929 136.821C207.788 139.4 207.661 141.716 206.523 144.095C206.252 144.659 206.073 145.116 206.121 145.116C206.169 145.116 206.613 144.896 207.111 144.625C210.493 142.789 212.869 139.64 213.89 135.632C214.213 134.36 214.34 131.325 214.123 130.063C213.738 127.836 212.941 126.007 211.648 124.402C210.177 122.57 208.012 120.964 204.213 118.895C201.171 117.238 200.03 116.592 199.459 116.207C199.261 116.058 199.042 115.94 198.809 115.856ZM151.585 127.33C151.585 126.65 152.805 126.402 153.589 126.925C154.421 127.475 154.686 128.609 154.187 129.489C153.713 130.331 152.802 130.61 152.159 130.108C151.764 129.795 151.736 129.335 152.083 128.812C152.427 128.296 152.393 128.045 151.956 127.822C151.698 127.688 151.585 127.537 151.585 127.33ZM194.444 113.684L194.681 114.395C194.87 115.041 195.019 115.697 195.128 116.361C195.874 120.796 193.547 124.381 189.016 125.77C188.535 125.918 186.648 126.285 184.822 126.591C181.117 127.21 179.467 127.643 177.806 128.444C176.627 129.011 175.204 129.86 175.287 129.946C175.493 129.936 175.696 129.887 175.885 129.802C177.978 129.066 180.309 128.688 183.846 128.503C185.252 128.43 186.85 128.314 187.397 128.245C190.553 127.846 192.735 126.89 194.437 125.158C195.382 124.195 195.946 123.302 196.396 122.037C196.688 121.232 196.726 120.937 196.73 119.514C196.73 118.066 196.695 117.802 196.386 116.911C195.973 115.743 195.492 114.866 194.884 114.182L194.444 113.684ZM189.14 100.855C189.105 100.855 189.078 101.515 189.078 102.323C189.078 107.809 192.357 111.061 201.659 114.808C207.857 117.3 210.39 118.589 212.281 120.211C213.938 121.638 214.928 123.542 215.021 125.495C215.038 125.863 215.107 126.127 215.175 126.107C215.43 126.024 216.378 123.896 216.691 122.714C217.087 121.219 217.228 118.383 216.987 116.87C216.148 111.666 212.635 107.843 206.956 105.96C205.169 105.368 203.23 104.963 199.789 104.457C193.942 103.605 191.828 102.959 189.941 101.446C189.688 101.23 189.42 101.033 189.14 100.855ZM176.063 105.1C175.369 104.746 173.894 104.605 173.179 104.825C172.055 105.169 170.966 106.362 170.625 107.61C170.419 108.369 170.536 109.706 170.845 110.119C171.344 110.786 171.828 110.961 173.135 110.951C175.692 110.934 177.913 109.837 178.174 108.465C178.387 107.341 177.408 105.788 176.063 105.1ZM172.513 106.661C172.513 105.454 174.444 104.805 175.72 105.588C176.39 105.997 176.565 106.602 176.167 107.163C175.898 107.548 175.056 107.919 174.441 107.919C173.52 107.919 172.513 107.259 172.513 106.661ZM173.001 81.6392C171.56 81.2954 169.47 81.1133 168.587 81.2473C168.126 81.3161 168.168 81.3367 169.147 81.4879C172.722 82.0448 175.51 83.4611 178.353 86.1629C179.601 87.3489 180.859 88.8236 182.89 91.4911C187.469 97.4964 189.411 99.1704 193.265 100.429C195.527 101.164 197.813 101.508 201.848 101.721C206.317 101.958 208.001 102.316 209.6 103.371C210.483 103.955 211.174 104.684 211.862 105.75L212.264 106.369L212.178 105.688C211.858 103.075 209.992 99.3973 207.613 96.7058L207.18 96.2142L206.96 97.2008C206.41 99.6861 205.22 101.47 204.113 101.474C203.846 101.472 203.584 101.395 203.358 101.251C203.132 101.108 202.951 100.904 202.835 100.662C202.591 100.078 202.611 99.8648 202.972 99.1842C203.643 97.9295 203.808 96.252 203.478 94.0623C203.385 93.4298 203.244 92.8351 203.168 92.7458C202.928 92.4536 200.996 91.3295 199.772 90.7658C195.327 88.7101 190.009 88.0433 184.784 88.8854L183.547 89.0848L182.681 88.1189C179.415 84.4854 176.359 82.4401 173.001 81.6392ZM205.31 82.6258C205.282 82.6258 205.1 82.9764 204.908 83.4026C204.419 84.4786 204.179 85.6576 204.076 87.4451C204.01 88.5967 203.945 88.992 203.811 89.0401C203.608 89.1192 203.337 89.0367 201.68 88.4008C200.569 87.9711 197.806 87.1633 197.727 87.2458C197.706 87.2664 198.283 87.5483 199.012 87.8714C199.741 88.1945 200.923 88.8064 201.638 89.2326C204.474 90.9101 204.956 91.8864 204.959 95.9564C204.959 97.9845 204.935 98.2492 204.684 98.8611C204.347 99.6826 204.409 99.8373 204.777 99.112C205.464 97.7714 205.753 96.4239 205.794 94.3339C205.818 92.9933 205.86 92.7079 206.049 92.5189C206.255 92.3126 206.307 92.3126 206.64 92.4845C207.138 92.7389 209.39 94.5333 210.373 95.4511L211.174 96.2039L210.373 95.152C209.933 94.5711 208.716 93.227 207.668 92.1545C205.44 89.8754 205.262 89.5729 204.952 87.4623C204.712 85.7986 204.767 84.3686 205.124 83.327C205.218 83.1028 205.28 82.8669 205.31 82.6258ZM168.178 83.3476L168.095 84.3204C167.831 87.4623 169.061 91.6664 171.052 94.4061C172.598 96.5304 174.988 98.1804 176.758 98.342C177.913 98.4451 178.26 98.0842 177.738 97.3211C177.009 96.2589 176.115 94.6261 175.881 93.9248C175.606 92.9837 175.369 92.0319 175.17 91.0717C174.341 87.2045 173.523 85.6954 171.639 84.5508C170.695 84.037 169.682 83.6597 168.632 83.4301L168.178 83.3476Z" fill="#5B5B5B"/>
<path d="M175.834 231.784C174.981 231.784 174.208 231.67 173.514 231.444C172.834 231.204 172.214 230.83 171.654 230.324C171.108 229.817 170.681 229.124 170.374 228.244C170.081 227.364 169.934 226.33 169.934 225.144C169.934 223.864 170.081 222.77 170.374 221.864C170.668 220.957 171.088 220.25 171.634 219.744C172.181 219.237 172.794 218.87 173.474 218.644C174.154 218.417 174.941 218.304 175.834 218.304C176.701 218.304 177.481 218.437 178.174 218.704C178.868 218.957 179.474 219.35 179.994 219.884C180.528 220.417 180.934 221.13 181.214 222.024C181.508 222.904 181.654 223.944 181.654 225.144C181.654 226.344 181.508 227.384 181.214 228.264C180.921 229.13 180.501 229.817 179.954 230.324C179.421 230.83 178.808 231.204 178.114 231.444C177.434 231.67 176.674 231.784 175.834 231.784ZM176.914 227.764C177.154 227.03 177.274 226.157 177.274 225.144C177.274 224.117 177.148 223.21 176.894 222.424C176.641 221.637 176.288 221.244 175.834 221.244C175.514 221.244 175.234 221.444 174.994 221.844C174.768 222.244 174.601 222.737 174.494 223.324C174.388 223.897 174.334 224.504 174.334 225.144C174.334 226.13 174.461 226.997 174.714 227.744C174.981 228.49 175.354 228.864 175.834 228.864C176.314 228.864 176.674 228.497 176.914 227.764ZM188.407 222.644C188.407 221.99 187.8 221.664 186.587 221.664C186.334 221.664 185.987 221.69 185.547 221.744C185.12 221.784 184.807 221.804 184.607 221.804C183.647 221.804 183.167 221.23 183.167 220.084C183.167 218.897 184.554 218.304 187.327 218.304C189.127 218.304 190.474 218.597 191.367 219.184C192.26 219.77 192.707 220.537 192.707 221.484C192.707 222.804 192.134 223.857 190.987 224.644C191.76 225.057 192.3 225.49 192.607 225.944C192.927 226.384 193.087 227.024 193.087 227.864C193.087 229.024 192.627 229.97 191.707 230.704C190.8 231.424 189.58 231.784 188.047 231.784C186.127 231.784 184.747 231.59 183.907 231.204C183.08 230.804 182.667 230.204 182.667 229.404C182.667 228.737 182.8 228.284 183.067 228.044C183.334 227.79 183.707 227.664 184.187 227.664C184.427 227.664 184.8 227.69 185.307 227.744C185.814 227.797 186.2 227.824 186.467 227.824C187.92 227.824 188.647 227.557 188.647 227.024C188.647 226.664 188.507 226.417 188.227 226.284C187.947 226.137 187.42 226.064 186.647 226.064C185.874 226.064 185.327 225.964 185.007 225.764C184.687 225.564 184.527 225.19 184.527 224.644C184.527 223.817 185.074 223.404 186.167 223.404C186.874 223.404 187.394 223.37 187.727 223.304C188.074 223.237 188.274 223.164 188.327 223.084C188.38 222.99 188.407 222.844 188.407 222.644Z" fill="black"/>
</svg>
